<?xml version="1.0" encoding="UTF-8"?>
<svg xmlns="http://www.w3.org/2000/svg" xmlns:xlink="http://www.w3.org/1999/xlink" version="1.1" viewBox="0 0 679.22 450.5">
  <defs>
    <style>
      .cls-1 {
        clip-path: url(#clippath);
      }

      .cls-2, .cls-3, .cls-4, .cls-5, .cls-6, .cls-7, .cls-8, .cls-9, .cls-10 {
        fill: none;
      }

      .cls-2, .cls-4, .cls-5, .cls-11, .cls-10 {
        stroke-linecap: square;
      }

      .cls-2, .cls-4, .cls-5, .cls-8, .cls-9 {
        stroke: #fff;
      }

      .cls-2, .cls-11, .cls-8 {
        stroke-miterlimit: 10;
      }

      .cls-2, .cls-11, .cls-9 {
        stroke-width: .8px;
      }

      .cls-3, .cls-12, .cls-13 {
        stroke-width: 0px;
      }

      .cls-4, .cls-5, .cls-6, .cls-9, .cls-10 {
        stroke-linejoin: round;
      }

      .cls-4, .cls-7, .cls-8 {
        stroke-width: .75px;
      }

      .cls-5 {
        stroke-width: 3px;
      }

      .cls-14 {
        clip-path: url(#clippath-1);
      }

      .cls-15 {
        clip-path: url(#clippath-4);
      }

      .cls-16 {
        clip-path: url(#clippath-3);
      }

      .cls-17 {
        clip-path: url(#clippath-2);
      }

      .cls-18 {
        clip-path: url(#clippath-7);
      }

      .cls-19 {
        clip-path: url(#clippath-8);
      }

      .cls-20 {
        clip-path: url(#clippath-6);
      }

      .cls-21 {
        clip-path: url(#clippath-5);
      }

      .cls-22 {
        clip-path: url(#clippath-9);
      }

      .cls-11 {
        fill: #000;
        stroke: #000;
      }

      .cls-23 {
        font-family: Helvetica, Helvetica;
        font-size: 14px;
      }

      .cls-23, .cls-13 {
        fill: #fff;
      }

      .cls-12 {
        fill: #d9c22c;
      }

      .cls-6, .cls-10 {
        stroke: #d9c22c;
      }

      .cls-7 {
        stroke: #c0bebe;
        stroke-miterlimit: 3.8;
      }

      .cls-10 {
        stroke-width: 1.5px;
      }
    </style>
    <clipPath id="clippath">
      <rect class="cls-3" x="165.99" y="79.07" width="16" height="16"/>
    </clipPath>
    <clipPath id="clippath-1">
      <rect class="cls-3" x="202.06" y="108.03" width="16" height="16"/>
    </clipPath>
    <clipPath id="clippath-2">
      <rect class="cls-3" x="238.13" y="136.98" width="16" height="16"/>
    </clipPath>
    <clipPath id="clippath-3">
      <rect class="cls-3" x="274.21" y="164.82" width="16" height="16"/>
    </clipPath>
    <clipPath id="clippath-4">
      <rect class="cls-3" x="310.28" y="191.68" width="16" height="16"/>
    </clipPath>
    <clipPath id="clippath-5">
      <rect class="cls-3" x="346.35" y="216.49" width="16" height="16"/>
    </clipPath>
    <clipPath id="clippath-6">
      <rect class="cls-3" x="382.43" y="242.22" width="16" height="16"/>
    </clipPath>
    <clipPath id="clippath-7">
      <rect class="cls-3" x="418.5" y="269.78" width="16" height="16"/>
    </clipPath>
    <clipPath id="clippath-8">
      <rect class="cls-3" x="454.57" y="294.88" width="16" height="16"/>
    </clipPath>
    <clipPath id="clippath-9">
      <rect class="cls-3" x="490.64" y="320.99" width="16" height="16"/>
    </clipPath>
  </defs>
  <g id="Layer_2" data-name="Layer 2">
    <rect class="cls-11" x="-101.19" y="-80.37" width="855" height="598"/>
  </g>
  <g id="Layer_1" data-name="Layer 1">
    <line class="cls-13" x1="173.99" y1="340.73" x2="173.99" y2="344.93"/>
    <line class="cls-9" x1="173.99" y1="341.08" x2="173.99" y2="344.58"/>
    <path class="cls-13" d="M169.22,347.5c.97,0,1.72.4,2.24,1.16.52.78.78,1.91.78,3.37s-.26,2.6-.78,3.37c-.53.77-1.27,1.15-2.26,1.15s-1.73-.38-2.24-1.15-.77-1.9-.77-3.37.25-2.59.77-3.37c.52-.77,1.27-1.16,2.26-1.16ZM169.22,348.44c-.61,0-1.07.3-1.38.9-.31.6-.46,1.5-.46,2.7s.14,2.1.46,2.7c.31.6.77.9,1.38.9s1.07-.3,1.38-.9c.3-.6.46-1.5.46-2.7s-.16-2.1-.46-2.7c-.31-.6-.77-.9-1.38-.9Z"/>
    <rect class="cls-13" x="173.36" y="354.31" width="1.24" height="1.49"/>
    <path class="cls-13" d="M178.76,347.5c.97,0,1.72.4,2.24,1.16.52.78.78,1.91.78,3.37s-.26,2.6-.78,3.37c-.53.77-1.27,1.15-2.26,1.15s-1.73-.38-2.24-1.15-.77-1.9-.77-3.37.25-2.59.77-3.37c.52-.77,1.27-1.16,2.26-1.16ZM178.76,348.44c-.61,0-1.07.3-1.38.9s-.46,1.5-.46,2.7.14,2.1.46,2.7.77.9,1.38.9,1.07-.3,1.38-.9c.3-.6.46-1.5.46-2.7s-.16-2.1-.46-2.7c-.31-.6-.77-.9-1.38-.9Z"/>
    <line class="cls-13" x1="238.92" y1="340.73" x2="238.92" y2="344.93"/>
    <line class="cls-9" x1="238.92" y1="341.08" x2="238.92" y2="344.58"/>
    <path class="cls-13" d="M234.15,347.5c.97,0,1.72.4,2.24,1.16.52.78.78,1.91.78,3.37s-.26,2.6-.78,3.37c-.53.77-1.27,1.15-2.26,1.15s-1.73-.38-2.24-1.15-.77-1.9-.77-3.37.25-2.59.77-3.37c.52-.77,1.27-1.16,2.26-1.16ZM234.15,348.44c-.61,0-1.07.3-1.38.9s-.46,1.5-.46,2.7.14,2.1.46,2.7.77.9,1.38.9,1.07-.3,1.38-.9c.3-.6.46-1.5.46-2.7s-.16-2.1-.46-2.7c-.31-.6-.77-.9-1.38-.9Z"/>
    <rect class="cls-13" x="238.29" y="354.31" width="1.24" height="1.49"/>
    <path class="cls-13" d="M242.2,355.42h4.13v1h-5.56v-1c.44-.46,1.06-1.08,1.84-1.87.77-.78,1.26-1.28,1.46-1.51.38-.42.65-.78.79-1.08.14-.29.23-.59.23-.88,0-.46-.17-.84-.49-1.13-.32-.29-.74-.44-1.27-.44-.37,0-.77.07-1.18.19-.41.13-.85.32-1.32.59v-1.2c.48-.19.92-.34,1.33-.43s.79-.14,1.14-.14c.9,0,1.62.23,2.16.68s.82,1.06.82,1.81c0,.36-.07.71-.2,1.02-.13.32-.37.71-.73,1.14-.1.12-.41.44-.94.98-.53.54-1.26,1.3-2.21,2.27Z"/>
    <line class="cls-13" x1="303.85" y1="340.73" x2="303.85" y2="344.93"/>
    <line class="cls-9" x1="303.85" y1="341.08" x2="303.85" y2="344.58"/>
    <path class="cls-13" d="M299.08,347.5c.97,0,1.72.4,2.24,1.16.52.78.78,1.91.78,3.37s-.26,2.6-.78,3.37c-.53.77-1.27,1.15-2.26,1.15s-1.73-.38-2.24-1.15c-.52-.77-.77-1.9-.77-3.37s.25-2.59.77-3.37c.52-.77,1.27-1.16,2.26-1.16ZM299.08,348.44c-.61,0-1.07.3-1.38.9s-.46,1.5-.46,2.7.14,2.1.46,2.7.77.9,1.38.9,1.07-.3,1.38-.9c.3-.6.46-1.5.46-2.7s-.16-2.1-.46-2.7c-.31-.6-.77-.9-1.38-.9Z"/>
    <rect class="cls-13" x="303.22" y="354.31" width="1.24" height="1.49"/>
    <path class="cls-13" d="M309.03,347.66h1.49v5.7h1.25v.98h-1.25v2.06h-1.18v-2.06h-3.95v-1.14l3.64-5.54ZM309.34,348.69l-2.99,4.67h2.99v-4.67Z"/>
    <line class="cls-13" x1="368.78" y1="340.73" x2="368.78" y2="344.93"/>
    <line class="cls-9" x1="368.78" y1="341.08" x2="368.78" y2="344.58"/>
    <path class="cls-13" d="M364.01,347.5c.97,0,1.72.4,2.24,1.16.52.78.78,1.91.78,3.37s-.26,2.6-.78,3.37c-.53.77-1.27,1.15-2.26,1.15s-1.73-.38-2.24-1.15c-.52-.77-.77-1.9-.77-3.37s.25-2.59.77-3.37c.52-.77,1.27-1.16,2.26-1.16ZM364.01,348.44c-.61,0-1.07.3-1.38.9s-.46,1.5-.46,2.7.14,2.1.46,2.7.77.9,1.38.9,1.07-.3,1.38-.9c.3-.6.46-1.5.46-2.7s-.16-2.1-.46-2.7c-.31-.6-.77-.9-1.38-.9Z"/>
    <rect class="cls-13" x="368.16" y="354.31" width="1.24" height="1.49"/>
    <path class="cls-13" d="M376.04,347.85v1.08c-.3-.14-.6-.25-.9-.32-.31-.07-.61-.11-.9-.11-.79,0-1.39.26-1.8.79s-.65,1.33-.7,2.39c.23-.34.52-.6.86-.78s.73-.28,1.15-.28c.88,0,1.57.28,2.08.8.5.53.77,1.26.77,2.17s-.28,1.62-.8,2.16c-.53.54-1.24.8-2.11.8-1.01,0-1.79-.38-2.32-1.15-.54-.77-.8-1.9-.8-3.37,0-1.38.32-2.48.98-3.3.65-.82,1.54-1.24,2.64-1.24.29,0,.59.04.9.08.3.06.61.14.95.26ZM373.69,351.56c-.53,0-.95.19-1.26.55-.31.36-.47.86-.47,1.49s.16,1.14.47,1.5.73.54,1.26.54.95-.18,1.26-.54c.31-.36.47-.86.47-1.5s-.16-1.13-.47-1.49c-.31-.36-.73-.55-1.26-.55Z"/>
    <line class="cls-13" x1="433.71" y1="340.73" x2="433.71" y2="344.93"/>
    <line class="cls-9" x1="433.71" y1="341.08" x2="433.71" y2="344.58"/>
    <path class="cls-13" d="M428.94,347.5c.97,0,1.72.4,2.24,1.16.52.78.78,1.91.78,3.37s-.26,2.6-.78,3.37c-.53.77-1.27,1.15-2.26,1.15s-1.73-.38-2.24-1.15c-.52-.77-.77-1.9-.77-3.37s.25-2.59.77-3.37c.52-.77,1.27-1.16,2.26-1.16ZM428.94,348.44c-.61,0-1.07.3-1.38.9s-.46,1.5-.46,2.7.14,2.1.46,2.7.77.9,1.38.9,1.07-.3,1.38-.9c.3-.6.46-1.5.46-2.7s-.16-2.1-.46-2.7c-.31-.6-.77-.9-1.38-.9Z"/>
    <rect class="cls-13" x="433.09" y="354.31" width="1.24" height="1.49"/>
    <path class="cls-13" d="M436.86,349.88c0,.46.13.82.42,1.07.29.25.68.37,1.2.37s.9-.12,1.19-.37c.29-.25.43-.61.43-1.07s-.14-.8-.43-1.06c-.29-.25-.68-.38-1.19-.38s-.91.13-1.2.38c-.29.25-.42.6-.42,1.06ZM437.29,351.75c-.5-.12-.9-.36-1.19-.71-.29-.35-.42-.77-.42-1.27,0-.7.24-1.25.74-1.66.49-.41,1.18-.61,2.05-.61s1.55.2,2.05.61c.49.41.74.96.74,1.66,0,.5-.14.92-.43,1.27-.29.35-.67.59-1.18.71.56.13,1.01.4,1.33.78.31.38.48.86.48,1.42,0,.85-.26,1.5-.78,1.94-.53.46-1.27.67-2.23.67s-1.7-.22-2.22-.67c-.52-.44-.77-1.09-.77-1.94,0-.55.16-1.03.48-1.42.31-.38.76-.65,1.33-.78ZM438.48,352.25c-.56,0-1.01.16-1.33.46-.32.3-.48.71-.48,1.24s.16.95.48,1.25c.32.3.77.44,1.33.44s1-.14,1.32-.46c.32-.3.49-.71.49-1.24s-.17-.94-.48-1.24c-.32-.3-.77-.46-1.33-.46Z"/>
    <line class="cls-13" x1="498.64" y1="340.73" x2="498.64" y2="344.93"/>
    <line class="cls-9" x1="498.64" y1="341.08" x2="498.64" y2="344.58"/>
    <polygon class="cls-13" points="491.52 355.41 493.46 355.41 493.46 348.74 491.36 349.16 491.36 348.08 493.44 347.66 494.63 347.66 494.63 355.41 496.56 355.41 496.56 356.41 491.52 356.41 491.52 355.41"/>
    <rect class="cls-13" x="498.02" y="354.31" width="1.24" height="1.49"/>
    <path class="cls-13" d="M503.41,347.5c.97,0,1.72.4,2.24,1.16.52.78.78,1.91.78,3.37s-.26,2.6-.78,3.37c-.53.77-1.27,1.15-2.26,1.15s-1.73-.38-2.24-1.15c-.52-.77-.77-1.9-.77-3.37s.25-2.59.77-3.37c.52-.77,1.27-1.16,2.26-1.16ZM503.41,348.44c-.61,0-1.07.3-1.38.9s-.46,1.5-.46,2.7.14,2.1.46,2.7.77.9,1.38.9,1.07-.3,1.38-.9c.3-.6.46-1.5.46-2.7s-.16-2.1-.46-2.7c-.31-.6-.77-.9-1.38-.9Z"/>
    <line class="cls-13" x1="158.11" y1="329.86" x2="153.91" y2="329.86"/>
    <line class="cls-9" x1="157.76" y1="329.86" x2="154.26" y2="329.86"/>
    <path class="cls-13" d="M141.08,330.5c.53,0,.95-.18,1.26-.54.31-.36.47-.86.47-1.5s-.16-1.13-.47-1.49-.73-.55-1.26-.55-.95.19-1.26.55-.47.86-.47,1.49.16,1.14.47,1.5c.31.36.73.54,1.26.54ZM138.73,334.2v-1.08c.29.14.59.25.9.32.3.07.6.11.9.11.77,0,1.37-.25,1.78-.78s.65-1.32.72-2.4c-.24.34-.53.6-.86.78-.35.18-.73.26-1.15.26-.89,0-1.58-.26-2.09-.79-.5-.53-.76-1.25-.76-2.17s.26-1.61.79-2.16c.53-.54,1.24-.82,2.12-.82,1.01,0,1.79.4,2.32,1.16.53.78.8,1.91.8,3.37s-.34,2.48-.98,3.3c-.66.82-1.54,1.22-2.64,1.22-.3,0-.6-.04-.9-.08-.31-.05-.62-.13-.95-.25Z"/>
    <path class="cls-13" d="M147.58,325.48c.97,0,1.72.4,2.24,1.16.52.78.78,1.91.78,3.37s-.26,2.6-.78,3.37c-.53.77-1.27,1.15-2.26,1.15s-1.73-.38-2.24-1.15c-.52-.77-.77-1.9-.77-3.37s.25-2.59.77-3.37c.52-.77,1.27-1.16,2.26-1.16ZM147.58,326.42c-.61,0-1.07.3-1.38.9-.31.6-.46,1.5-.46,2.7s.14,2.1.46,2.7c.31.6.77.9,1.38.9s1.07-.3,1.38-.9c.3-.6.46-1.5.46-2.7s-.16-2.1-.46-2.7c-.31-.6-.77-.9-1.38-.9Z"/>
    <line class="cls-13" x1="158.11" y1="289.36" x2="153.91" y2="289.36"/>
    <line class="cls-9" x1="157.76" y1="289.36" x2="154.26" y2="289.36"/>
    <path class="cls-13" d="M141.08,290c.53,0,.95-.18,1.26-.54.31-.36.47-.86.47-1.5s-.16-1.13-.47-1.49-.73-.55-1.26-.55-.95.19-1.26.55-.47.86-.47,1.49.16,1.14.47,1.5c.31.36.73.54,1.26.54ZM138.73,293.71v-1.08c.29.14.59.25.9.32.3.07.6.11.9.11.77,0,1.37-.25,1.78-.78.41-.53.65-1.32.72-2.4-.24.34-.53.6-.86.78-.35.18-.73.26-1.15.26-.89,0-1.58-.26-2.09-.79-.5-.53-.76-1.25-.76-2.17s.26-1.61.79-2.16c.53-.54,1.24-.82,2.12-.82,1.01,0,1.79.4,2.32,1.16.53.78.8,1.91.8,3.37s-.34,2.48-.98,3.3c-.66.82-1.54,1.22-2.64,1.22-.3,0-.6-.04-.9-.08-.31-.05-.62-.13-.95-.25Z"/>
    <path class="cls-13" d="M145.07,285.13h4.64v1h-3.56v2.15c.17-.06.35-.11.52-.13.17-.02.35-.05.52-.05.97,0,1.74.28,2.32.8.58.54.86,1.26.86,2.17s-.3,1.68-.89,2.2-1.42.77-2.47.77c-.37,0-.74-.04-1.13-.08-.38-.06-.77-.14-1.18-.28v-1.19c.35.19.71.34,1.09.43.37.1.77.13,1.19.13.67,0,1.21-.17,1.61-.53.38-.36.59-.84.59-1.45s-.2-1.08-.59-1.44c-.4-.36-.94-.54-1.61-.54-.31,0-.64.04-.95.11-.31.07-.64.18-.96.32v-4.39Z"/>
    <line class="cls-13" x1="158.11" y1="248.87" x2="153.91" y2="248.87"/>
    <line class="cls-9" x1="157.76" y1="248.87" x2="154.26" y2="248.87"/>
    <polygon class="cls-13" points="132.51 252.4 134.44 252.4 134.44 245.72 132.34 246.14 132.34 245.06 134.43 244.64 135.62 244.64 135.62 252.4 137.55 252.4 137.55 253.39 132.51 253.39 132.51 252.4"/>
    <path class="cls-13" d="M141.22,244.49c.97,0,1.72.4,2.24,1.16.52.78.78,1.91.78,3.37s-.26,2.6-.78,3.37c-.53.77-1.27,1.15-2.26,1.15s-1.73-.38-2.24-1.15c-.52-.77-.77-1.9-.77-3.37s.25-2.59.77-3.37c.52-.77,1.27-1.16,2.26-1.16ZM141.22,245.42c-.61,0-1.07.3-1.38.9s-.46,1.5-.46,2.7.14,2.1.46,2.7.77.9,1.38.9,1.07-.3,1.38-.9c.3-.6.46-1.5.46-2.7s-.16-2.1-.46-2.7c-.31-.6-.77-.9-1.38-.9Z"/>
    <path class="cls-13" d="M147.58,244.49c.97,0,1.72.4,2.24,1.16.52.78.78,1.91.78,3.37s-.26,2.6-.78,3.37c-.53.77-1.27,1.15-2.26,1.15s-1.73-.38-2.24-1.15-.77-1.9-.77-3.37.25-2.59.77-3.37c.52-.77,1.27-1.16,2.26-1.16ZM147.58,245.42c-.61,0-1.07.3-1.38.9-.31.6-.46,1.5-.46,2.7s.14,2.1.46,2.7c.31.6.77.9,1.38.9s1.07-.3,1.38-.9c.3-.6.46-1.5.46-2.7s-.16-2.1-.46-2.7c-.31-.6-.77-.9-1.38-.9Z"/>
    <line class="cls-13" x1="158.11" y1="208.37" x2="153.91" y2="208.37"/>
    <line class="cls-9" x1="157.76" y1="208.37" x2="154.26" y2="208.37"/>
    <polygon class="cls-13" points="132.51 211.9 134.44 211.9 134.44 205.23 132.34 205.65 132.34 204.57 134.43 204.15 135.62 204.15 135.62 211.9 137.55 211.9 137.55 212.9 132.51 212.9 132.51 211.9"/>
    <path class="cls-13" d="M141.22,203.99c.97,0,1.72.4,2.24,1.16.52.78.78,1.91.78,3.37s-.26,2.6-.78,3.37c-.53.77-1.27,1.15-2.26,1.15s-1.73-.38-2.24-1.15c-.52-.77-.77-1.9-.77-3.37s.25-2.59.77-3.37c.52-.77,1.27-1.16,2.26-1.16ZM141.22,204.93c-.61,0-1.07.3-1.38.9s-.46,1.5-.46,2.7.14,2.1.46,2.7.77.9,1.38.9,1.07-.3,1.38-.9c.3-.6.46-1.5.46-2.7s-.16-2.1-.46-2.7c-.31-.6-.77-.9-1.38-.9Z"/>
    <path class="cls-13" d="M145.07,204.13h4.64v1h-3.56v2.15c.17-.06.35-.11.52-.13s.35-.05.52-.05c.97,0,1.74.28,2.32.8.58.54.86,1.26.86,2.17s-.3,1.68-.89,2.2c-.59.52-1.42.77-2.47.77-.37,0-.74-.04-1.13-.08-.38-.06-.77-.14-1.18-.28v-1.19c.35.19.71.34,1.09.43.37.1.77.13,1.19.13.67,0,1.21-.17,1.61-.53.38-.36.59-.84.59-1.45s-.2-1.08-.59-1.44c-.4-.36-.94-.54-1.61-.54-.31,0-.64.04-.95.11-.31.07-.64.18-.96.32v-4.39Z"/>
    <line class="cls-13" x1="158.11" y1="167.87" x2="153.91" y2="167.87"/>
    <line class="cls-9" x1="157.76" y1="167.87" x2="154.26" y2="167.87"/>
    <polygon class="cls-13" points="132.51 171.4 134.44 171.4 134.44 164.73 132.34 165.15 132.34 164.07 134.43 163.65 135.62 163.65 135.62 171.4 137.55 171.4 137.55 172.4 132.51 172.4 132.51 171.4"/>
    <polygon class="cls-13" points="138.87 171.4 140.8 171.4 140.8 164.73 138.7 165.15 138.7 164.07 140.79 163.65 141.98 163.65 141.98 171.4 143.91 171.4 143.91 172.4 138.87 172.4 138.87 171.4"/>
    <path class="cls-13" d="M147.58,163.49c.97,0,1.72.4,2.24,1.16.52.78.78,1.91.78,3.37s-.26,2.6-.78,3.37c-.53.77-1.27,1.15-2.26,1.15s-1.73-.38-2.24-1.15-.77-1.9-.77-3.37.25-2.59.77-3.37c.52-.77,1.27-1.16,2.26-1.16ZM147.58,164.43c-.61,0-1.07.3-1.38.9-.31.6-.46,1.5-.46,2.7s.14,2.1.46,2.7c.31.6.77.9,1.38.9s1.07-.3,1.38-.9c.3-.6.46-1.5.46-2.7s-.16-2.1-.46-2.7c-.31-.6-.77-.9-1.38-.9Z"/>
    <line class="cls-13" x1="158.11" y1="127.38" x2="153.91" y2="127.38"/>
    <line class="cls-9" x1="157.76" y1="127.38" x2="154.26" y2="127.38"/>
    <polygon class="cls-13" points="132.51 130.91 134.44 130.91 134.44 124.23 132.34 124.65 132.34 123.57 134.43 123.15 135.62 123.15 135.62 130.91 137.55 130.91 137.55 131.9 132.51 131.9 132.51 130.91"/>
    <polygon class="cls-13" points="138.87 130.91 140.8 130.91 140.8 124.23 138.7 124.65 138.7 123.57 140.79 123.15 141.98 123.15 141.98 130.91 143.91 130.91 143.91 131.9 138.87 131.9 138.87 130.91"/>
    <path class="cls-13" d="M145.07,123.14h4.64v1h-3.56v2.15c.17-.06.35-.11.52-.13s.35-.05.52-.05c.97,0,1.74.28,2.32.8.58.54.86,1.26.86,2.17s-.3,1.68-.89,2.2c-.59.52-1.42.77-2.47.77-.37,0-.74-.04-1.13-.08-.38-.06-.77-.14-1.18-.28v-1.19c.35.19.71.34,1.09.43.37.1.77.13,1.19.13.67,0,1.21-.17,1.61-.53.38-.36.59-.84.59-1.45s-.2-1.08-.59-1.44c-.4-.36-.94-.54-1.61-.54-.31,0-.64.04-.95.11-.31.07-.64.18-.96.32v-4.39Z"/>
    <line class="cls-13" x1="158.11" y1="86.88" x2="153.91" y2="86.88"/>
    <line class="cls-9" x1="157.76" y1="86.88" x2="154.26" y2="86.88"/>
    <polygon class="cls-13" points="132.51 90.41 134.44 90.41 134.44 83.74 132.34 84.16 132.34 83.08 134.43 82.66 135.62 82.66 135.62 90.41 137.55 90.41 137.55 91.41 132.51 91.41 132.51 90.41"/>
    <path class="cls-13" d="M139.73,90.42h4.13v1h-5.56v-1c.44-.46,1.06-1.08,1.84-1.87.77-.78,1.26-1.28,1.46-1.51.38-.42.65-.78.79-1.08.14-.29.23-.59.23-.88,0-.46-.17-.84-.49-1.13s-.74-.44-1.27-.44c-.37,0-.77.07-1.18.19-.41.13-.85.32-1.32.59v-1.2c.48-.19.92-.34,1.33-.43.41-.1.79-.14,1.14-.14.9,0,1.62.23,2.16.68.54.46.82,1.06.82,1.81,0,.36-.07.71-.2,1.02-.13.32-.37.71-.73,1.14-.1.12-.41.44-.94.98s-1.26,1.3-2.21,2.27Z"/>
    <path class="cls-13" d="M147.58,82.5c.97,0,1.72.4,2.24,1.16.52.78.78,1.91.78,3.37s-.26,2.6-.78,3.37c-.53.77-1.27,1.15-2.26,1.15s-1.73-.38-2.24-1.15c-.52-.77-.77-1.9-.77-3.37s.25-2.59.77-3.37c.52-.77,1.27-1.16,2.26-1.16ZM147.58,83.44c-.61,0-1.07.3-1.38.9-.31.6-.46,1.5-.46,2.7s.14,2.1.46,2.7c.31.6.77.9,1.38.9s1.07-.3,1.38-.9c.3-.6.46-1.5.46-2.7s-.16-2.1-.46-2.7c-.31-.6-.77-.9-1.38-.9Z"/>
    <g>
      <polyline class="cls-10" points="173.99 87.07 210.06 116.03 246.13 144.98 282.21 172.82 318.28 199.68 354.35 224.49 390.43 250.22 426.5 277.78 462.57 302.88 498.64 328.99"/>
      <g class="cls-1">
        <path class="cls-12" d="M173.99,90.07c.8,0,1.56-.32,2.12-.88.56-.56.88-1.33.88-2.12s-.32-1.56-.88-2.12c-.56-.56-1.33-.88-2.12-.88s-1.56.32-2.12.88c-.56.56-.88,1.33-.88,2.12s.32,1.56.88,2.12c.56.56,1.33.88,2.12.88Z"/>
        <path class="cls-6" d="M173.99,90.07c.8,0,1.56-.32,2.12-.88.56-.56.88-1.33.88-2.12s-.32-1.56-.88-2.12c-.56-.56-1.33-.88-2.12-.88s-1.56.32-2.12.88c-.56.56-.88,1.33-.88,2.12s.32,1.56.88,2.12c.56.56,1.33.88,2.12.88Z"/>
      </g>
      <g class="cls-14">
        <path class="cls-12" d="M210.06,119.03c.8,0,1.56-.32,2.12-.88.56-.56.88-1.33.88-2.12s-.32-1.56-.88-2.12c-.56-.56-1.33-.88-2.12-.88s-1.56.32-2.12.88c-.56.56-.88,1.33-.88,2.12s.32,1.56.88,2.12c.56.56,1.33.88,2.12.88Z"/>
        <path class="cls-6" d="M210.06,119.03c.8,0,1.56-.32,2.12-.88.56-.56.88-1.33.88-2.12s-.32-1.56-.88-2.12c-.56-.56-1.33-.88-2.12-.88s-1.56.32-2.12.88c-.56.56-.88,1.33-.88,2.12s.32,1.56.88,2.12c.56.56,1.33.88,2.12.88Z"/>
      </g>
      <g class="cls-17">
        <path class="cls-12" d="M246.13,147.98c.8,0,1.56-.32,2.12-.88s.88-1.33.88-2.12-.32-1.56-.88-2.12-1.33-.88-2.12-.88-1.56.32-2.12.88-.88,1.33-.88,2.12.32,1.56.88,2.12,1.33.88,2.12.88Z"/>
        <path class="cls-6" d="M246.13,147.98c.8,0,1.56-.32,2.12-.88s.88-1.33.88-2.12-.32-1.56-.88-2.12-1.33-.88-2.12-.88-1.56.32-2.12.88-.88,1.33-.88,2.12.32,1.56.88,2.12,1.33.88,2.12.88Z"/>
      </g>
      <g class="cls-16">
        <path class="cls-12" d="M282.21,175.82c.8,0,1.56-.32,2.12-.88s.88-1.33.88-2.12-.32-1.56-.88-2.12-1.33-.88-2.12-.88-1.56.32-2.12.88-.88,1.33-.88,2.12.32,1.56.88,2.12,1.33.88,2.12.88Z"/>
        <path class="cls-6" d="M282.21,175.82c.8,0,1.56-.32,2.12-.88s.88-1.33.88-2.12-.32-1.56-.88-2.12-1.33-.88-2.12-.88-1.56.32-2.12.88-.88,1.33-.88,2.12.32,1.56.88,2.12,1.33.88,2.12.88Z"/>
      </g>
      <g class="cls-15">
        <path class="cls-12" d="M318.28,202.68c.8,0,1.56-.32,2.12-.88s.88-1.33.88-2.12-.32-1.56-.88-2.12-1.33-.88-2.12-.88-1.56.32-2.12.88-.88,1.33-.88,2.12.32,1.56.88,2.12,1.33.88,2.12.88Z"/>
        <path class="cls-6" d="M318.28,202.68c.8,0,1.56-.32,2.12-.88s.88-1.33.88-2.12-.32-1.56-.88-2.12-1.33-.88-2.12-.88-1.56.32-2.12.88-.88,1.33-.88,2.12.32,1.56.88,2.12,1.33.88,2.12.88Z"/>
      </g>
      <g class="cls-21">
        <path class="cls-12" d="M354.35,227.49c.8,0,1.56-.32,2.12-.88s.88-1.33.88-2.12-.32-1.56-.88-2.12-1.33-.88-2.12-.88-1.56.32-2.12.88-.88,1.33-.88,2.12.32,1.56.88,2.12,1.33.88,2.12.88Z"/>
        <path class="cls-6" d="M354.35,227.49c.8,0,1.56-.32,2.12-.88s.88-1.33.88-2.12-.32-1.56-.88-2.12-1.33-.88-2.12-.88-1.56.32-2.12.88-.88,1.33-.88,2.12.32,1.56.88,2.12,1.33.88,2.12.88Z"/>
      </g>
      <g class="cls-20">
        <path class="cls-12" d="M390.43,253.22c.8,0,1.56-.32,2.12-.88.56-.56.88-1.33.88-2.12s-.32-1.56-.88-2.12c-.56-.56-1.33-.88-2.12-.88s-1.56.32-2.12.88c-.56.56-.88,1.33-.88,2.12s.32,1.56.88,2.12c.56.56,1.33.88,2.12.88Z"/>
        <path class="cls-6" d="M390.43,253.22c.8,0,1.56-.32,2.12-.88.56-.56.88-1.33.88-2.12s-.32-1.56-.88-2.12c-.56-.56-1.33-.88-2.12-.88s-1.56.32-2.12.88c-.56.56-.88,1.33-.88,2.12s.32,1.56.88,2.12c.56.56,1.33.88,2.12.88Z"/>
      </g>
      <g class="cls-18">
        <path class="cls-12" d="M426.5,280.78c.8,0,1.56-.32,2.12-.88.56-.56.88-1.33.88-2.12s-.32-1.56-.88-2.12c-.56-.56-1.33-.88-2.12-.88s-1.56.32-2.12.88c-.56.56-.88,1.33-.88,2.12s.32,1.56.88,2.12c.56.56,1.33.88,2.12.88Z"/>
        <path class="cls-6" d="M426.5,280.78c.8,0,1.56-.32,2.12-.88.56-.56.88-1.33.88-2.12s-.32-1.56-.88-2.12c-.56-.56-1.33-.88-2.12-.88s-1.56.32-2.12.88c-.56.56-.88,1.33-.88,2.12s.32,1.56.88,2.12c.56.56,1.33.88,2.12.88Z"/>
      </g>
      <g class="cls-19">
        <path class="cls-12" d="M462.57,305.88c.8,0,1.56-.32,2.12-.88.56-.56.88-1.33.88-2.12s-.32-1.56-.88-2.12c-.56-.56-1.33-.88-2.12-.88s-1.56.32-2.12.88c-.56.56-.88,1.33-.88,2.12s.32,1.56.88,2.12c.56.56,1.33.88,2.12.88Z"/>
        <path class="cls-6" d="M462.57,305.88c.8,0,1.56-.32,2.12-.88.56-.56.88-1.33.88-2.12s-.32-1.56-.88-2.12c-.56-.56-1.33-.88-2.12-.88s-1.56.32-2.12.88c-.56.56-.88,1.33-.88,2.12s.32,1.56.88,2.12c.56.56,1.33.88,2.12.88Z"/>
      </g>
      <g class="cls-22">
        <path class="cls-12" d="M498.64,331.99c.8,0,1.56-.32,2.12-.88.56-.56.88-1.33.88-2.12s-.32-1.56-.88-2.12c-.56-.56-1.33-.88-2.12-.88s-1.56.32-2.12.88c-.56.56-.88,1.33-.88,2.12s.32,1.56.88,2.12c.56.56,1.33.88,2.12.88Z"/>
        <path class="cls-6" d="M498.64,331.99c.8,0,1.56-.32,2.12-.88.56-.56.88-1.33.88-2.12s-.32-1.56-.88-2.12c-.56-.56-1.33-.88-2.12-.88s-1.56.32-2.12.88c-.56.56-.88,1.33-.88,2.12s.32,1.56.88,2.12c.56.56,1.33.88,2.12.88Z"/>
      </g>
    </g>
    <line class="cls-2" x1="157.76" y1="341.08" x2="157.76" y2="74.97"/>
    <line class="cls-2" x1="157.76" y1="341.08" x2="514.88" y2="341.08"/>
    <path class="cls-2" d="M157.76,74.97"/>
    <path class="cls-4" d="M198.32,37.02l1.12,10.49s0,.04.01.06l.53,1.98c.11.43.74.37.78-.07l.65-7.7c.04-.47.71-.49.79-.03l.3,1.84c.07.43.67.45.78.03l.18-.73c.1-.42.71-.39.78.03l.5,3.27c.07.43.68.45.78.03l.31-1.41c.09-.41.66-.42.77-.02l.66,2.48c.03.1.09.18.17.23l.84.54c.1.06.16.16.18.28l.86,5.86c.06.41.63.46.77.08l.57-1.59s.02-.06.02-.09l1.12-10,.9-7.77c.05-.43.65-.48.77-.07l.57,1.93s0,.02,0,.03l.62,2.91c.09.44.73.41.78-.04l.84-6.97.99.7c.08.06.14.15.16.25l1.09,5.86.81,5.82c.06.44.69.46.78.03l.27-1.31c.09-.42.68-.42.78,0l.21.95c.1.44.73.41.78-.04l.82-7.52c.02-.18.16-.32.33-.35l.44-.07c.21-.03.41.11.45.31l1.02,5.13c.02.1.07.18.15.24l.89.66c.07.05.12.13.15.22l.65,2.5c.11.41.69.39.77-.02l.3-1.54c.09-.44.73-.42.78.03l.34,2.83c.06.48.75.46.79-.02l.58-7.61c.04-.47.71-.5.79-.04h0c.08.46.76.43.79-.04l.56-8.85c.03-.49.75-.5.79,0l.67,8.15s0,.02,0,.04l.62,3.47c.08.45.74.43.78-.03l.42-4.09c.05-.48.74-.47.79,0l.52,5.52c.04.44.67.49.78.06l.31-1.22c.09-.35.56-.41.73-.09l.19.35c.17.31.63.27.73-.07l.36-1.17c.12-.4.7-.36.77.05l.84,4.84.65,5.22c.06.47.75.46.79-.02l.58-6.81c.04-.45.68-.5.78-.05v.03c.11.44.75.4.79-.05l.65-6.83c.04-.45.69-.49.78-.05l.58,2.71s0,.03,0,.04l.87,8.41c.05.45.68.48.78.05l.58-2.62s0-.04,0-.06l.71-9.69c.04-.49.76-.49.79,0l.71,10.48c.02.25.25.42.49.36l.43-.11c.14-.04.25-.15.29-.29l1.07-4.46,1.07-5c.03-.14.14-.26.27-.3l.74-.22c.1-.03.18-.1.23-.19l1.03-1.85s.02-.03.02-.05l1.11-2.92,1.1,16.27c.01.21.18.37.39.37h.51c.15.01.3-.07.36-.21l.98-1.99s.03-.08.04-.13l.92-7.6c.05-.41.62-.48.76-.09l.17.46c.13.34.62.34.74,0l.61-1.68c.08-.21.31-.31.52-.23l.29.11c.23.09.49-.05.54-.3l.63-3.67c.08-.44.71-.44.78,0l.75,4.87.82,5.66c.06.43.68.46.78.03l.11-.45c.1-.44.73-.4.78.05l.47,4.55c.05.48.74.47.79,0l.73-7.61c0-.05.02-.1.04-.14l.96-1.85c.08-.15.24-.23.41-.21l.72.1c.08.01.16.05.22.1l.93.88c.06.06.1.14.12.22l1.09,6.32c0,.05.03.1.05.14l1.08,1.74.79-13.56c.03-.49.75-.5.79,0l.27,3.26c.04.49.75.49.79,0l.73-8.9,1.1,2.8s.02.07.03.11l.69,7.8c.04.49.75.48.79,0l.31-4.08c.04-.49.76-.49.79,0l.77,12.99c0,.08.03.16.08.22l.66.85c.18.23.54.19.67-.07l.81-1.62s.03-.08.04-.13l1.09-8.35c.01-.09.06-.18.13-.24l.93-.85c.06-.05.1-.12.12-.19l.51-1.91c.11-.43.74-.37.78.07l.92,10.47s0,.05.01.07l.69,2.55c.11.4.68.39.77-.02l.76-3.4s0-.04,0-.06l1.1-14.7c0-.12.07-.23.17-.29l.97-.68,1.12,6.77.62,5.48c.05.48.76.46.79-.02l.83-12.43.9.34c.13.05.23.17.25.31l.89,5.95c.06.39.59.47.75.1l.57-1.27,1.12-2.54,1.12,11.42.64,5.84c.05.48.76.47.79-.02l.81-11.67"/>
    <polyline class="cls-8" points="498.64 228.9 499.58 234.47 500.53 230.35 501.48 231.49 502.43 224.09 503.38 219.97 504.33 217.73 505.27 222.66 506.22 232.05 507.17 231.81 508.12 232.94 509.07 232.18 510.02 227.91 510.96 226.01 511.91 222.25 512.86 223.87 513.81 226.33 514.76 227.08 515.71 221.94 516.66 226.83 517.6 221.13 518.55 226.23 519.5 213.62 520.45 222.84 521.4 227.29 522.35 239.55 523.29 240.18 524.24 241.82 525.19 235.57 526.14 237.28 527.09 243.48 528.04 241.6 528.98 248.55 529.93 252.84 530.88 258.76 531.83 261.37 532.78 268.9 533.73 267.69 534.67 270.66 535.62 273.12 536.57 266.89 537.52 268.78 538.47 264.28 539.42 268.57 540.36 265.71 541.31 266.43 542.26 270.36 543.21 260.73 544.16 269.77 545.11 272.56 546.06 268.59 547 260.08 547.95 262.26 548.9 261.29 549.85 257.38 550.8 249.01 551.75 242.77 552.69 234.16 553.64 232.42 554.59 231.04 555.54 237.19 556.49 237.63 557.44 232.74 558.38 229.13 559.33 218.64 560.28 219.25 561.23 222.24 562.18 224.38 563.13 217.75 564.07 226.34 565.02 222.81 565.97 218.87 566.92 212.93 567.87 208.95 568.82 207.93 569.76 209.34 570.71 213.19 571.66 222.78 572.61 221.2 573.56 219.44 574.51 232.54 575.46 229.28 576.4 228.33 577.35 226.19 578.3 225.91 579.25 217.61 580.2 225.88 581.15 218.02 582.09 223.72 583.04 222.48 583.99 229.84 584.94 223.44 585.89 220.23 586.84 222.02 587.78 209.93 588.73 211.16 589.68 203.15 590.63 204.49 591.58 209.04 592.53 220.67"/>
    <path class="cls-5" d="M229.41,67.77"/>
    <line class="cls-7" x1="218.39" y1="106.26" x2="245.91" y2="67.81"/>
    <line class="cls-7" x1="470.05" y1="291.04" x2="497.57" y2="252.59"/>
    <text class="cls-23" transform="translate(116.43 395.65)"><tspan x="0" y="0">Short timescale</tspan></text>
    <text class="cls-23" transform="translate(300.91 375.92)"><tspan x="0" y="0">AR(1) coeff</tspan></text>
    <text class="cls-23" transform="translate(491.36 395.65)"><tspan x="0" y="0">Long timescale</tspan></text>
    <text class="cls-23" transform="translate(121.61 257.05) rotate(-90)"><tspan x="0" y="0">Curvature (deg)</tspan></text>
  </g>
</svg>