<?xml version="1.0" encoding="UTF-8"?>
<svg xmlns="http://www.w3.org/2000/svg" xmlns:xlink="http://www.w3.org/1999/xlink" version="1.1" viewBox="0 0 423.64 324.8">
  <defs>
    <style>
      .cls-1 {
        clip-path: url(#clippath);
      }

      .cls-2, .cls-3, .cls-4, .cls-5 {
        stroke-width: 0px;
      }

      .cls-2, .cls-6, .cls-7 {
        fill: none;
      }

      .cls-3 {
        fill: #0f7ed4;
      }

      .cls-8 {
        stroke: #000;
      }

      .cls-8, .cls-4 {
        fill: #000;
      }

      .cls-8, .cls-7 {
        stroke-miterlimit: 10;
      }

      .cls-6 {
        stroke-linejoin: round;
      }

      .cls-6, .cls-7 {
        stroke: #ddd;
        stroke-width: .8px;
      }

      .cls-9 {
        clip-path: url(#clippath-1);
      }

      .cls-10 {
        clip-path: url(#clippath-3);
      }

      .cls-11 {
        clip-path: url(#clippath-2);
      }

      .cls-12 {
        letter-spacing: 2.08em;
      }

      .cls-5 {
        fill: #ddd;
      }

      .cls-13 {
        fill: #fff;
        font-family: MyriadPro-Regular, 'Myriad Pro';
        font-size: 14px;
      }

      .cls-14 {
        letter-spacing: 1.85em;
      }

      .cls-15 {
        letter-spacing: 2.36em;
      }

      .cls-7 {
        stroke-linecap: square;
      }

      .cls-16 {
        letter-spacing: -.1em;
      }

      .cls-17 {
        letter-spacing: 1.17em;
      }
    </style>
    <clipPath id="clippath">
      <rect class="cls-2" x="59.32" y="1.15" width="357.12" height="266.11"/>
    </clipPath>
    <clipPath id="clippath-1">
      <rect class="cls-2" x="59.32" y="1.15" width="357.12" height="266.11"/>
    </clipPath>
    <clipPath id="clippath-2">
      <rect class="cls-2" x="59.32" y="1.15" width="357.12" height="266.11"/>
    </clipPath>
    <clipPath id="clippath-3">
      <rect class="cls-2" x="59.32" y="1.15" width="357.12" height="266.11"/>
    </clipPath>
  </defs>
  <g id="Layer_2" data-name="Layer 2">
    <rect class="cls-8" x="-207.6" y="-154.2" width="905" height="678"/>
  </g>
  <g id="Layer_1" data-name="Layer 1">
    <rect class="cls-4" x="59.32" y="1.15" width="357.12" height="266.11"/>
    <g class="cls-1">
      <rect class="cls-3" x="82.39" y="107.96" width="54.68" height="159.3"/>
    </g>
    <g class="cls-9">
      <rect class="cls-3" x="167.83" y="51.33" width="54.68" height="215.93"/>
    </g>
    <g class="cls-11">
      <rect class="cls-3" x="253.26" y="51.56" width="54.68" height="215.7"/>
    </g>
    <g class="cls-10">
      <rect class="cls-3" x="338.7" y="13.82" width="54.68" height="253.44"/>
    </g>
    <line class="cls-5" x1="109.73" y1="267.26" x2="109.73" y2="270.76"/>
    <line class="cls-6" x1="109.73" y1="267.26" x2="109.73" y2="270.76"/>
    <line class="cls-5" x1="195.17" y1="267.26" x2="195.17" y2="270.76"/>
    <line class="cls-6" x1="195.17" y1="267.26" x2="195.17" y2="270.76"/>
    <line class="cls-5" x1="280.6" y1="267.26" x2="280.6" y2="270.76"/>
    <line class="cls-6" x1="280.6" y1="267.26" x2="280.6" y2="270.76"/>
    <path class="cls-5" d="M279.47,276.25h0Z"/>
    <path class="cls-5" d="M298.3,276.25h0Z"/>
    <line class="cls-5" x1="366.04" y1="267.26" x2="366.04" y2="270.76"/>
    <line class="cls-6" x1="366.04" y1="267.26" x2="366.04" y2="270.76"/>
    <line class="cls-5" x1="59.32" y1="267.26" x2="55.82" y2="267.26"/>
    <line class="cls-6" x1="59.32" y1="267.26" x2="55.82" y2="267.26"/>
    <path class="cls-5" d="M49.14,263.64c.81,0,1.43.33,1.87.97.43.65.65,1.59.65,2.81s-.22,2.17-.65,2.81c-.44.64-1.06.96-1.88.96s-1.44-.32-1.87-.96c-.43-.64-.64-1.58-.64-2.81s.21-2.16.64-2.81c.43-.64,1.06-.97,1.88-.97ZM49.14,264.42c-.51,0-.89.25-1.15.75-.26.5-.38,1.25-.38,2.25s.12,1.75.38,2.25c.26.5.64.75,1.15.75s.89-.25,1.15-.75c.25-.5.38-1.25.38-2.25s-.13-1.75-.38-2.25c-.26-.5-.64-.75-1.15-.75Z"/>
    <line class="cls-5" x1="59.32" y1="233.59" x2="55.82" y2="233.59"/>
    <line class="cls-6" x1="59.32" y1="233.59" x2="55.82" y2="233.59"/>
    <path class="cls-5" d="M47.88,236.56h3.44v.83h-4.63v-.83c.37-.38.88-.9,1.53-1.56.64-.65,1.05-1.07,1.22-1.26.32-.35.54-.65.66-.9.12-.24.19-.49.19-.73,0-.38-.14-.7-.41-.94-.27-.24-.62-.37-1.06-.37-.31,0-.64.06-.98.16-.34.11-.71.27-1.1.49v-1c.4-.16.77-.28,1.11-.36.34-.08.66-.12.95-.12.75,0,1.35.19,1.8.57.45.38.68.88.68,1.51,0,.3-.06.59-.17.85-.11.27-.31.59-.61.95-.08.1-.34.37-.78.82-.44.45-1.05,1.08-1.84,1.89Z"/>
    <line class="cls-5" x1="59.32" y1="199.92" x2="55.82" y2="199.92"/>
    <line class="cls-6" x1="59.32" y1="199.92" x2="55.82" y2="199.92"/>
    <path class="cls-5" d="M49.48,196.43h1.24v4.75h1.04v.82h-1.04v1.72h-.98v-1.72h-3.29v-.95l3.03-4.62ZM49.74,197.29l-2.49,3.89h2.49v-3.89Z"/>
    <line class="cls-5" x1="59.32" y1="166.25" x2="55.82" y2="166.25"/>
    <line class="cls-6" x1="59.32" y1="166.25" x2="55.82" y2="166.25"/>
    <path class="cls-5" d="M51.22,162.92v.9c-.25-.12-.5-.21-.75-.27-.26-.06-.51-.09-.75-.09-.66,0-1.16.22-1.5.66-.34.44-.54,1.11-.58,1.99.19-.28.43-.5.72-.65.29-.15.61-.23.96-.23.73,0,1.31.23,1.73.67.42.44.64,1.05.64,1.81s-.23,1.35-.67,1.8c-.44.45-1.03.67-1.76.67-.84,0-1.49-.32-1.93-.96-.45-.64-.67-1.58-.67-2.81,0-1.15.27-2.07.82-2.75.54-.68,1.28-1.03,2.2-1.03.24,0,.49.03.75.07.25.05.51.12.79.22ZM49.26,166.01c-.44,0-.79.16-1.05.46-.26.3-.39.72-.39,1.24s.13.95.39,1.25c.26.3.61.45,1.05.45s.79-.15,1.05-.45c.26-.3.39-.72.39-1.25s-.13-.94-.39-1.24c-.26-.3-.61-.46-1.05-.46Z"/>
    <line class="cls-5" x1="59.32" y1="132.58" x2="55.82" y2="132.58"/>
    <line class="cls-6" x1="59.32" y1="132.58" x2="55.82" y2="132.58"/>
    <path class="cls-5" d="M47.79,130.94c0,.38.11.68.35.89.24.21.57.31,1,.31s.75-.1.99-.31c.24-.21.36-.51.36-.89s-.12-.67-.36-.88c-.24-.21-.57-.32-.99-.32s-.76.11-1,.32c-.24.21-.35.5-.35.88ZM48.15,132.5c-.42-.1-.75-.3-.99-.59s-.35-.64-.35-1.06c0-.58.2-1.04.62-1.38.41-.34.98-.51,1.71-.51s1.29.17,1.71.51c.41.34.62.8.62,1.38,0,.42-.12.77-.36,1.06s-.56.49-.98.59c.47.11.84.33,1.11.65.26.32.4.72.4,1.18,0,.71-.22,1.25-.65,1.62-.44.38-1.06.56-1.86.56s-1.42-.18-1.85-.56c-.43-.37-.64-.91-.64-1.62,0-.46.13-.86.4-1.18.26-.32.63-.54,1.11-.65ZM49.14,132.92c-.47,0-.84.13-1.11.38-.27.25-.4.59-.4,1.03s.13.79.4,1.04c.27.25.64.37,1.11.37s.83-.12,1.1-.38c.27-.25.41-.59.41-1.03s-.14-.78-.4-1.03c-.27-.25-.64-.38-1.11-.38Z"/>
    <line class="cls-5" x1="59.32" y1="98.91" x2="55.82" y2="98.91"/>
    <line class="cls-6" x1="59.32" y1="98.91" x2="55.82" y2="98.91"/>
    <polygon class="cls-5" points="40.84 101.88 42.45 101.88 42.45 96.32 40.7 96.67 40.7 95.77 42.44 95.42 43.43 95.42 43.43 101.88 45.04 101.88 45.04 102.71 40.84 102.71 40.84 101.88"/>
    <path class="cls-5" d="M49.14,95.29c.81,0,1.43.33,1.87.97.43.65.65,1.59.65,2.81s-.22,2.17-.65,2.81c-.44.64-1.06.96-1.88.96s-1.44-.32-1.87-.96-.64-1.58-.64-2.81.21-2.16.64-2.81c.43-.64,1.06-.97,1.88-.97ZM49.14,96.07c-.51,0-.89.25-1.15.75-.26.5-.38,1.25-.38,2.25s.12,1.75.38,2.25c.26.5.64.75,1.15.75s.89-.25,1.15-.75c.25-.5.38-1.25.38-2.25s-.13-1.75-.38-2.25c-.26-.5-.64-.75-1.15-.75Z"/>
    <line class="cls-5" x1="59.32" y1="65.24" x2="55.82" y2="65.24"/>
    <line class="cls-6" x1="59.32" y1="65.24" x2="55.82" y2="65.24"/>
    <polygon class="cls-5" points="40.84 68.2 42.45 68.2 42.45 62.64 40.7 62.99 40.7 62.09 42.44 61.74 43.43 61.74 43.43 68.2 45.04 68.2 45.04 69.03 40.84 69.03 40.84 68.2"/>
    <path class="cls-5" d="M47.88,68.2h3.44v.83h-4.63v-.83c.37-.38.88-.9,1.53-1.56.64-.65,1.05-1.07,1.22-1.26.32-.35.54-.65.66-.9.12-.24.19-.49.19-.73,0-.38-.14-.7-.41-.94-.27-.24-.62-.37-1.06-.37-.31,0-.64.06-.98.16-.34.11-.71.27-1.1.49v-1c.4-.16.77-.28,1.11-.36s.66-.12.95-.12c.75,0,1.35.19,1.8.57.45.38.68.88.68,1.51,0,.3-.06.59-.17.85-.11.27-.31.59-.61.95-.08.1-.34.37-.78.82-.44.45-1.05,1.08-1.84,1.89Z"/>
    <line class="cls-5" x1="59.32" y1="31.57" x2="55.82" y2="31.57"/>
    <line class="cls-6" x1="59.32" y1="31.57" x2="55.82" y2="31.57"/>
    <polygon class="cls-5" points="40.84 34.53 42.45 34.53 42.45 28.97 40.7 29.32 40.7 28.42 42.44 28.07 43.43 28.07 43.43 34.53 45.04 34.53 45.04 35.36 40.84 35.36 40.84 34.53"/>
    <path class="cls-5" d="M49.48,28.07h1.24v4.75h1.04v.82h-1.04v1.72h-.98v-1.72h-3.29v-.95l3.03-4.62ZM49.74,28.93l-2.49,3.89h2.49v-3.89Z"/>
    <line class="cls-7" x1="59.32" y1="267.26" x2="59.32" y2="1.15"/>
    <path class="cls-7" d="M416.44,1.15"/>
    <path class="cls-7" d="M416.44,267.26"/>
    <line class="cls-7" x1="59.32" y1="267.26" x2="416.44" y2="267.26"/>
    <path class="cls-7" d="M416.44,1.15"/>
    <path class="cls-7" d="M59.32,1.15"/>
    <text class="cls-13" transform="translate(30.37 159.44) rotate(-90)"><tspan x="0" y="0">PSD(W/Hz)</tspan></text>
    <text class="cls-13" transform="translate(101.28 286.55)"><tspan x="0" y="0">AC</tspan><tspan class="cls-17" x="16.69" y="0">	</tspan><tspan class="cls-15" x="36" y="0">	</tspan><tspan x="72" y="0" xml:space="preserve">   sPMv</tspan><tspan class="cls-12" x="111.88" y="0">	</tspan><tspan x="144" y="0" xml:space="preserve">  precuneus </tspan><tspan class="cls-16" x="214.49" y="0">	</tspan><tspan x="216" y="0" xml:space="preserve">       prefrontal</tspan><tspan class="cls-14" x="295.14" y="0">	</tspan><tspan class="cls-15" x="324" y="0" xml:space="preserve">			</tspan></text>
    <text class="cls-13" transform="translate(214.57 306.64)"><tspan x="0" y="0">Regions</tspan></text>
  </g>
</svg>