<?xml version="1.0" encoding="UTF-8"?>
<svg xmlns="http://www.w3.org/2000/svg" xmlns:xlink="http://www.w3.org/1999/xlink" version="1.1" viewBox="0 0 999 754.8">
  <defs>
    <style>
      .cls-1 {
        clip-path: url(#clippath);
      }

      .cls-2 {
        stroke-linecap: square;
      }

      .cls-2, .cls-3, .cls-4 {
        fill: none;
      }

      .cls-2, .cls-5 {
        stroke-miterlimit: 10;
      }

      .cls-2, .cls-4 {
        stroke: #fff;
        stroke-width: .8px;
      }

      .cls-3, .cls-6, .cls-7, .cls-8 {
        stroke-width: 0px;
      }

      .cls-6 {
        fill: #0f7ed4;
      }

      .cls-5 {
        stroke: #000;
      }

      .cls-5, .cls-7, .cls-9 {
        fill: #000;
      }

      .cls-10 {
        clip-path: url(#clippath-1);
      }

      .cls-11 {
        clip-path: url(#clippath-3);
      }

      .cls-12 {
        clip-path: url(#clippath-2);
      }

      .cls-13 {
        letter-spacing: 2.08em;
      }

      .cls-9 {
        font-size: 12px;
      }

      .cls-9, .cls-14 {
        font-family: MyriadPro-Regular, 'Myriad Pro';
      }

      .cls-14 {
        font-size: 14px;
      }

      .cls-14, .cls-8 {
        fill: #fff;
      }

      .cls-15 {
        letter-spacing: 1.85em;
      }

      .cls-16 {
        letter-spacing: 2.36em;
      }

      .cls-4 {
        stroke-linejoin: round;
      }

      .cls-17 {
        letter-spacing: -.1em;
      }

      .cls-18 {
        letter-spacing: 1.17em;
      }
    </style>
    <clipPath id="clippath">
      <rect class="cls-3" x="339.11" y="240.15" width="357.12" height="266.11"/>
    </clipPath>
    <clipPath id="clippath-1">
      <rect class="cls-3" x="339.11" y="240.15" width="357.12" height="266.11"/>
    </clipPath>
    <clipPath id="clippath-2">
      <rect class="cls-3" x="339.11" y="240.15" width="357.12" height="266.11"/>
    </clipPath>
    <clipPath id="clippath-3">
      <rect class="cls-3" x="339.11" y="240.15" width="357.12" height="266.11"/>
    </clipPath>
  </defs>
  <g id="Layer_2" data-name="Layer 2">
    <rect class="cls-5" x="170" y="78.8" width="685" height="566"/>
  </g>
  <g id="Layer_1" data-name="Layer 1">
    <rect class="cls-7" x="339.11" y="240.15" width="357.12" height="266.11"/>
    <g class="cls-1">
      <rect class="cls-6" x="362.17" y="252.82" width="54.68" height="253.44"/>
    </g>
    <g class="cls-10">
      <rect class="cls-6" x="447.61" y="284" width="54.68" height="222.26"/>
    </g>
    <g class="cls-12">
      <rect class="cls-6" x="533.04" y="324.33" width="54.68" height="181.93"/>
    </g>
    <g class="cls-11">
      <rect class="cls-6" x="618.48" y="334.71" width="54.68" height="171.55"/>
    </g>
    <line class="cls-8" x1="389.51" y1="506.26" x2="389.51" y2="509.76"/>
    <line class="cls-4" x1="389.51" y1="506.26" x2="389.51" y2="509.76"/>
    <line class="cls-8" x1="474.95" y1="506.26" x2="474.95" y2="509.76"/>
    <line class="cls-4" x1="474.95" y1="506.26" x2="474.95" y2="509.76"/>
    <line class="cls-8" x1="560.38" y1="506.26" x2="560.38" y2="509.76"/>
    <line class="cls-4" x1="560.38" y1="506.26" x2="560.38" y2="509.76"/>
    <line class="cls-8" x1="645.82" y1="506.26" x2="645.82" y2="509.76"/>
    <line class="cls-4" x1="645.82" y1="506.26" x2="645.82" y2="509.76"/>
    <line class="cls-8" x1="339.11" y1="506.26" x2="335.61" y2="506.26"/>
    <line class="cls-4" x1="339.11" y1="506.26" x2="335.61" y2="506.26"/>
    <path class="cls-8" d="M319.38,502.64c.81,0,1.43.33,1.87.97.43.65.65,1.59.65,2.81s-.22,2.17-.65,2.81c-.44.64-1.06.96-1.88.96s-1.44-.32-1.87-.96c-.43-.64-.64-1.58-.64-2.81s.21-2.16.64-2.81c.43-.64,1.06-.97,1.88-.97ZM319.38,503.42c-.51,0-.89.25-1.15.75-.26.5-.38,1.25-.38,2.25s.12,1.75.38,2.25c.26.5.64.75,1.15.75s.89-.25,1.15-.75c.25-.5.38-1.25.38-2.25s-.13-1.75-.38-2.25c-.26-.5-.64-.75-1.15-.75Z"/>
    <rect class="cls-8" x="323.63" y="508.82" width="1.03" height="1.24"/>
    <path class="cls-8" d="M328.92,502.64c.81,0,1.43.33,1.87.97.43.65.65,1.59.65,2.81s-.22,2.17-.65,2.81c-.44.64-1.06.96-1.88.96s-1.44-.32-1.87-.96c-.43-.64-.64-1.58-.64-2.81s.21-2.16.64-2.81c.43-.64,1.06-.97,1.88-.97ZM328.92,503.42c-.51,0-.89.25-1.15.75s-.38,1.25-.38,2.25.12,1.75.38,2.25.64.75,1.15.75.89-.25,1.15-.75c.25-.5.38-1.25.38-2.25s-.13-1.75-.38-2.25c-.26-.5-.64-.75-1.15-.75Z"/>
    <line class="cls-8" x1="339.11" y1="468.11" x2="335.61" y2="468.11"/>
    <line class="cls-4" x1="339.11" y1="468.11" x2="335.61" y2="468.11"/>
    <path class="cls-8" d="M319.38,464.49c.81,0,1.43.33,1.87.97.43.65.65,1.59.65,2.81s-.22,2.17-.65,2.81c-.44.64-1.06.96-1.88.96s-1.44-.32-1.87-.96-.64-1.58-.64-2.81.21-2.16.64-2.81c.43-.64,1.06-.97,1.88-.97ZM319.38,465.27c-.51,0-.89.25-1.15.75-.26.5-.38,1.25-.38,2.25s.12,1.75.38,2.25c.26.5.64.75,1.15.75s.89-.25,1.15-.75c.25-.5.38-1.25.38-2.25s-.13-1.75-.38-2.25c-.26-.5-.64-.75-1.15-.75Z"/>
    <rect class="cls-8" x="323.63" y="470.67" width="1.03" height="1.24"/>
    <path class="cls-8" d="M326.82,464.62h3.87v.83h-2.97v1.79c.14-.05.29-.09.43-.11.14-.02.29-.04.43-.04.81,0,1.45.23,1.93.67.48.45.72,1.05.72,1.81s-.25,1.4-.74,1.83-1.18.64-2.06.64c-.31,0-.62-.03-.94-.07-.32-.05-.64-.12-.98-.23v-.99c.29.16.59.28.91.36.31.08.64.11.99.11.56,0,1.01-.14,1.34-.44.32-.3.49-.7.49-1.21s-.17-.9-.49-1.2c-.33-.3-.78-.45-1.34-.45-.26,0-.53.03-.79.09-.26.06-.53.15-.8.27v-3.66Z"/>
    <line class="cls-8" x1="339.11" y1="429.97" x2="335.61" y2="429.97"/>
    <line class="cls-4" x1="339.11" y1="429.97" x2="335.61" y2="429.97"/>
    <polygon class="cls-8" points="317.44 432.94 319.05 432.94 319.05 427.38 317.3 427.73 317.3 426.83 319.04 426.48 320.03 426.48 320.03 432.94 321.64 432.94 321.64 433.77 317.44 433.77 317.44 432.94"/>
    <rect class="cls-8" x="323.63" y="432.53" width="1.03" height="1.24"/>
    <path class="cls-8" d="M328.92,426.35c.81,0,1.43.33,1.87.97.43.65.65,1.59.65,2.81s-.22,2.17-.65,2.81c-.44.64-1.06.96-1.88.96s-1.44-.32-1.87-.96c-.43-.64-.64-1.58-.64-2.81s.21-2.16.64-2.81c.43-.64,1.06-.97,1.88-.97ZM328.92,427.13c-.51,0-.89.25-1.15.75s-.38,1.25-.38,2.25.12,1.75.38,2.25.64.75,1.15.75.89-.25,1.15-.75c.25-.5.38-1.25.38-2.25s-.13-1.75-.38-2.25c-.26-.5-.64-.75-1.15-.75Z"/>
    <line class="cls-8" x1="339.11" y1="391.82" x2="335.61" y2="391.82"/>
    <line class="cls-4" x1="339.11" y1="391.82" x2="335.61" y2="391.82"/>
    <polygon class="cls-8" points="317.44 394.79 319.05 394.79 319.05 389.23 317.3 389.58 317.3 388.68 319.04 388.33 320.03 388.33 320.03 394.79 321.64 394.79 321.64 395.62 317.44 395.62 317.44 394.79"/>
    <rect class="cls-8" x="323.63" y="394.38" width="1.03" height="1.24"/>
    <path class="cls-8" d="M326.82,388.33h3.87v.83h-2.97v1.79c.14-.05.29-.09.43-.11s.29-.04.43-.04c.81,0,1.45.23,1.93.67.48.45.72,1.05.72,1.81s-.25,1.4-.74,1.83c-.49.43-1.18.64-2.06.64-.31,0-.62-.03-.94-.07-.32-.05-.64-.12-.98-.23v-.99c.29.16.59.28.91.36.31.08.64.11.99.11.56,0,1.01-.14,1.34-.44.32-.3.49-.7.49-1.21s-.17-.9-.49-1.2c-.33-.3-.78-.45-1.34-.45-.26,0-.53.03-.79.09-.26.06-.53.15-.8.27v-3.66Z"/>
    <line class="cls-8" x1="339.11" y1="353.68" x2="335.61" y2="353.68"/>
    <line class="cls-4" x1="339.11" y1="353.68" x2="335.61" y2="353.68"/>
    <path class="cls-8" d="M318.12,356.64h3.44v.83h-4.63v-.83c.37-.38.88-.9,1.53-1.56.64-.65,1.05-1.07,1.22-1.26.32-.35.54-.65.66-.9.12-.24.19-.49.19-.73,0-.38-.14-.7-.41-.94-.27-.24-.62-.37-1.06-.37-.31,0-.64.06-.98.16-.34.11-.71.27-1.1.49v-1c.4-.16.77-.28,1.11-.36s.66-.12.95-.12c.75,0,1.35.19,1.8.57.45.38.68.88.68,1.51,0,.3-.06.59-.17.85-.11.27-.31.59-.61.95-.08.1-.34.37-.78.82s-1.05,1.08-1.84,1.89Z"/>
    <rect class="cls-8" x="323.63" y="356.23" width="1.03" height="1.24"/>
    <path class="cls-8" d="M328.92,350.05c.81,0,1.43.33,1.87.97.43.65.65,1.59.65,2.81s-.22,2.17-.65,2.81c-.44.64-1.06.96-1.88.96s-1.44-.32-1.87-.96c-.43-.64-.64-1.58-.64-2.81s.21-2.16.64-2.81c.43-.64,1.06-.97,1.88-.97ZM328.92,350.83c-.51,0-.89.25-1.15.75s-.38,1.25-.38,2.25.12,1.75.38,2.25.64.75,1.15.75.89-.25,1.15-.75c.25-.5.38-1.25.38-2.25s-.13-1.75-.38-2.25c-.26-.5-.64-.75-1.15-.75Z"/>
    <line class="cls-8" x1="339.11" y1="315.53" x2="335.61" y2="315.53"/>
    <line class="cls-4" x1="339.11" y1="315.53" x2="335.61" y2="315.53"/>
    <path class="cls-8" d="M318.12,318.5h3.44v.83h-4.63v-.83c.37-.38.88-.9,1.53-1.56.64-.65,1.05-1.07,1.22-1.26.32-.35.54-.65.66-.9.12-.24.19-.49.19-.73,0-.38-.14-.7-.41-.94-.27-.24-.62-.37-1.06-.37-.31,0-.64.06-.98.16-.34.11-.71.27-1.1.49v-1c.4-.16.77-.28,1.11-.36s.66-.12.95-.12c.75,0,1.35.19,1.8.57.45.38.68.88.68,1.51,0,.3-.06.59-.17.85-.11.27-.31.59-.61.95-.08.1-.34.37-.78.82s-1.05,1.08-1.84,1.89Z"/>
    <rect class="cls-8" x="323.63" y="318.09" width="1.03" height="1.24"/>
    <path class="cls-8" d="M326.82,312.04h3.87v.83h-2.97v1.79c.14-.05.29-.09.43-.11s.29-.04.43-.04c.81,0,1.45.23,1.93.67.48.45.72,1.05.72,1.81s-.25,1.4-.74,1.83c-.49.43-1.18.64-2.06.64-.31,0-.62-.03-.94-.07-.32-.05-.64-.12-.98-.23v-.99c.29.16.59.28.91.36.31.08.64.11.99.11.56,0,1.01-.14,1.34-.44.32-.3.49-.7.49-1.21s-.17-.9-.49-1.2c-.33-.3-.78-.45-1.34-.45-.26,0-.53.03-.79.09-.26.06-.53.15-.8.27v-3.66Z"/>
    <line class="cls-8" x1="339.11" y1="277.39" x2="335.61" y2="277.39"/>
    <line class="cls-4" x1="339.11" y1="277.39" x2="335.61" y2="277.39"/>
    <path class="cls-8" d="M320.26,277.25c.47.1.84.31,1.1.63.26.32.4.72.4,1.18,0,.72-.25,1.28-.74,1.67-.5.39-1.2.58-2.11.58-.31,0-.63-.03-.95-.09-.32-.05-.66-.14-1-.26v-.95c.27.16.57.28.9.36.32.08.66.12,1.02.12.62,0,1.09-.12,1.41-.36.32-.24.49-.6.49-1.07,0-.42-.15-.76-.45-1s-.72-.37-1.26-.37h-.85v-.81h.89c.48,0,.85-.09,1.11-.29.26-.19.39-.47.39-.84s-.14-.66-.4-.86c-.27-.2-.65-.3-1.14-.3-.27,0-.56.03-.87.09-.31.06-.65.15-1.02.27v-.88c.37-.1.72-.18,1.05-.23.32-.05.63-.08.93-.08.74,0,1.33.17,1.77.51s.66.8.66,1.38c0,.4-.12.74-.35,1.02-.23.28-.56.48-.98.58Z"/>
    <rect class="cls-8" x="323.63" y="279.94" width="1.03" height="1.24"/>
    <path class="cls-8" d="M328.92,273.76c.81,0,1.43.33,1.87.97.43.65.65,1.59.65,2.81s-.22,2.17-.65,2.81c-.44.64-1.06.96-1.88.96s-1.44-.32-1.87-.96c-.43-.64-.64-1.58-.64-2.81s.21-2.16.64-2.81c.43-.64,1.06-.97,1.88-.97ZM328.92,274.54c-.51,0-.89.25-1.15.75s-.38,1.25-.38,2.25.12,1.75.38,2.25.64.75,1.15.75.89-.25,1.15-.75c.25-.5.38-1.25.38-2.25s-.13-1.75-.38-2.25c-.26-.5-.64-.75-1.15-.75Z"/>
    <line class="cls-2" x1="339.11" y1="506.26" x2="339.11" y2="240.15"/>
    <line class="cls-2" x1="339.11" y1="506.26" x2="696.23" y2="506.26"/>
    <text class="cls-9" transform="translate(272.05 298.88)"><tspan x="0" y="0">Lorem ipsum</tspan></text>
    <text class="cls-14" transform="translate(301.37 400.74) rotate(-90)"><tspan x="0" y="0">PSD(W/Hz)</tspan></text>
    <text class="cls-14" transform="translate(381.44 526.58)"><tspan x="0" y="0">AC</tspan><tspan class="cls-18" x="16.69" y="0">	</tspan><tspan class="cls-16" x="36" y="0">	</tspan><tspan x="72" y="0" xml:space="preserve">   sPMv</tspan><tspan class="cls-13" x="111.88" y="0">	</tspan><tspan x="144" y="0" xml:space="preserve">  precuneus </tspan><tspan class="cls-17" x="214.49" y="0">	</tspan><tspan x="216" y="0" xml:space="preserve">       prefrontal</tspan><tspan class="cls-15" x="295.14" y="0">	</tspan><tspan class="cls-16" x="324" y="0" xml:space="preserve">			</tspan></text>
    <text class="cls-14" transform="translate(494.74 546.67)"><tspan x="0" y="0">Regions</tspan></text>
  </g>
</svg>