<?xml version="1.0" encoding="UTF-8"?>
<svg xmlns="http://www.w3.org/2000/svg" xmlns:xlink="http://www.w3.org/1999/xlink" version="1.1" viewBox="0 0 404.91 310.86">
  <defs>
    <style>
      .cls-1 {
        clip-path: url(#clippath);
      }

      .cls-2, .cls-3, .cls-4, .cls-5, .cls-6, .cls-7, .cls-8 {
        fill: none;
      }

      .cls-2, .cls-4, .cls-5, .cls-9, .cls-6, .cls-8 {
        stroke-linecap: square;
      }

      .cls-2, .cls-9 {
        stroke-miterlimit: 10;
      }

      .cls-2, .cls-9, .cls-7 {
        stroke-width: .8px;
      }

      .cls-2, .cls-7 {
        stroke: #fff;
      }

      .cls-3, .cls-10 {
        stroke-width: 0px;
      }

      .cls-4 {
        stroke: #1f77b4;
      }

      .cls-4, .cls-5, .cls-6, .cls-7, .cls-8 {
        stroke-linejoin: round;
      }

      .cls-4, .cls-5, .cls-6, .cls-8 {
        stroke-width: 1.5px;
      }

      .cls-5 {
        stroke: #d62728;
      }

      .cls-11 {
        clip-path: url(#clippath-1);
      }

      .cls-12 {
        clip-path: url(#clippath-3);
      }

      .cls-13 {
        clip-path: url(#clippath-2);
      }

      .cls-9 {
        fill: #000;
        stroke: #000;
      }

      .cls-6 {
        stroke: #ff7f0e;
      }

      .cls-10 {
        fill: #fff;
      }

      .cls-8 {
        stroke: #2ca02c;
      }
    </style>
    <clipPath id="clippath">
      <rect class="cls-3" x="40.59" y="7.2" width="357.12" height="266.11"/>
    </clipPath>
    <clipPath id="clippath-1">
      <rect class="cls-3" x="40.59" y="7.2" width="357.12" height="266.11"/>
    </clipPath>
    <clipPath id="clippath-2">
      <rect class="cls-3" x="40.59" y="7.2" width="357.12" height="266.11"/>
    </clipPath>
    <clipPath id="clippath-3">
      <rect class="cls-3" x="40.59" y="7.2" width="357.12" height="266.11"/>
    </clipPath>
  </defs>
  <g id="Layer_2" data-name="Layer 2">
    <rect class="cls-9" x="-213.89" y="-135.46" width="857" height="629"/>
  </g>
  <g id="Layer_1" data-name="Layer 1">
    <line class="cls-10" x1="56.82" y1="272.96" x2="56.82" y2="277.16"/>
    <line class="cls-7" x1="56.82" y1="273.31" x2="56.82" y2="276.81"/>
    <path class="cls-10" d="M48.87,279.73c.97,0,1.72.4,2.24,1.16.52.78.78,1.91.78,3.37s-.26,2.6-.78,3.37c-.53.77-1.27,1.15-2.26,1.15s-1.73-.38-2.24-1.15-.77-1.9-.77-3.37.25-2.59.77-3.37c.52-.77,1.27-1.16,2.26-1.16ZM48.87,280.67c-.61,0-1.07.3-1.38.9-.31.6-.46,1.5-.46,2.7s.14,2.1.46,2.7c.31.6.77.9,1.38.9s1.07-.3,1.38-.9c.3-.6.46-1.5.46-2.7s-.16-2.1-.46-2.7c-.31-.6-.77-.9-1.38-.9Z"/>
    <rect class="cls-10" x="53.02" y="286.54" width="1.24" height="1.49"/>
    <path class="cls-10" d="M58.41,279.73c.97,0,1.72.4,2.24,1.16.52.78.78,1.91.78,3.37s-.26,2.6-.78,3.37c-.53.77-1.27,1.15-2.26,1.15s-1.73-.38-2.24-1.15-.77-1.9-.77-3.37.25-2.59.77-3.37c.52-.77,1.27-1.16,2.26-1.16ZM58.41,280.67c-.61,0-1.07.3-1.38.9-.31.6-.46,1.5-.46,2.7s.14,2.1.46,2.7c.31.6.77.9,1.38.9s1.07-.3,1.38-.9c.3-.6.46-1.5.46-2.7s-.16-2.1-.46-2.7c-.31-.6-.77-.9-1.38-.9Z"/>
    <path class="cls-10" d="M64.77,279.73c.97,0,1.72.4,2.24,1.16.52.78.78,1.91.78,3.37s-.26,2.6-.78,3.37c-.53.77-1.27,1.15-2.26,1.15s-1.73-.38-2.24-1.15-.77-1.9-.77-3.37.25-2.59.77-3.37c.52-.77,1.27-1.16,2.26-1.16ZM64.77,280.67c-.61,0-1.07.3-1.38.9-.31.6-.46,1.5-.46,2.7s.14,2.1.46,2.7c.31.6.77.9,1.38.9s1.07-.3,1.38-.9c.3-.6.46-1.5.46-2.7s-.16-2.1-.46-2.7c-.31-.6-.77-.9-1.38-.9Z"/>
    <line class="cls-10" x1="121.75" y1="272.96" x2="121.75" y2="277.16"/>
    <line class="cls-7" x1="121.75" y1="273.31" x2="121.75" y2="276.81"/>
    <path class="cls-10" d="M113.8,279.73c.97,0,1.72.4,2.24,1.16.52.78.78,1.91.78,3.37s-.26,2.6-.78,3.37c-.53.77-1.27,1.15-2.26,1.15s-1.73-.38-2.24-1.15-.77-1.9-.77-3.37.25-2.59.77-3.37c.52-.77,1.27-1.16,2.26-1.16ZM113.8,280.67c-.61,0-1.07.3-1.38.9s-.46,1.5-.46,2.7.14,2.1.46,2.7.77.9,1.38.9,1.07-.3,1.38-.9c.3-.6.46-1.5.46-2.7s-.16-2.1-.46-2.7c-.31-.6-.77-.9-1.38-.9Z"/>
    <rect class="cls-10" x="117.95" y="286.54" width="1.24" height="1.49"/>
    <path class="cls-10" d="M123.34,279.73c.97,0,1.72.4,2.24,1.16.52.78.78,1.91.78,3.37s-.26,2.6-.78,3.37c-.53.77-1.27,1.15-2.26,1.15s-1.73-.38-2.24-1.15-.77-1.9-.77-3.37.25-2.59.77-3.37c.52-.77,1.27-1.16,2.26-1.16ZM123.34,280.67c-.61,0-1.07.3-1.38.9s-.46,1.5-.46,2.7.14,2.1.46,2.7.77.9,1.38.9,1.07-.3,1.38-.9c.3-.6.46-1.5.46-2.7s-.16-2.1-.46-2.7c-.31-.6-.77-.9-1.38-.9Z"/>
    <path class="cls-10" d="M127.19,279.87h4.64v1h-3.56v2.15c.17-.06.35-.11.52-.13.17-.02.35-.05.52-.05.97,0,1.74.28,2.32.8.58.54.86,1.26.86,2.17s-.3,1.68-.89,2.2c-.59.52-1.42.77-2.47.77-.37,0-.74-.04-1.13-.08-.38-.06-.77-.14-1.18-.28v-1.19c.35.19.71.34,1.09.43.37.1.77.13,1.19.13.67,0,1.21-.17,1.61-.53.38-.36.59-.84.59-1.45s-.2-1.08-.59-1.44c-.4-.36-.94-.54-1.61-.54-.31,0-.64.04-.95.11-.31.07-.64.18-.96.32v-4.39Z"/>
    <line class="cls-10" x1="186.69" y1="272.96" x2="186.69" y2="277.16"/>
    <line class="cls-7" x1="186.69" y1="273.31" x2="186.69" y2="276.81"/>
    <path class="cls-10" d="M178.73,279.73c.97,0,1.72.4,2.24,1.16.52.78.78,1.91.78,3.37s-.26,2.6-.78,3.37c-.53.77-1.27,1.15-2.26,1.15s-1.73-.38-2.24-1.15c-.52-.77-.77-1.9-.77-3.37s.25-2.59.77-3.37c.52-.77,1.27-1.16,2.26-1.16ZM178.73,280.67c-.61,0-1.07.3-1.38.9s-.46,1.5-.46,2.7.14,2.1.46,2.7.77.9,1.38.9,1.07-.3,1.38-.9c.3-.6.46-1.5.46-2.7s-.16-2.1-.46-2.7c-.31-.6-.77-.9-1.38-.9Z"/>
    <rect class="cls-10" x="182.88" y="286.54" width="1.24" height="1.49"/>
    <polygon class="cls-10" points="185.93 287.64 187.86 287.64 187.86 280.97 185.76 281.39 185.76 280.31 187.85 279.89 189.03 279.89 189.03 287.64 190.97 287.64 190.97 288.63 185.93 288.63 185.93 287.64"/>
    <path class="cls-10" d="M194.63,279.73c.97,0,1.72.4,2.24,1.16.52.78.78,1.91.78,3.37s-.26,2.6-.78,3.37c-.53.77-1.27,1.15-2.26,1.15s-1.73-.38-2.24-1.15c-.52-.77-.77-1.9-.77-3.37s.25-2.59.77-3.37c.52-.77,1.27-1.16,2.26-1.16ZM194.63,280.67c-.61,0-1.07.3-1.38.9s-.46,1.5-.46,2.7.14,2.1.46,2.7.77.9,1.38.9,1.07-.3,1.38-.9c.3-.6.46-1.5.46-2.7s-.16-2.1-.46-2.7c-.31-.6-.77-.9-1.38-.9Z"/>
    <line class="cls-10" x1="251.62" y1="272.96" x2="251.62" y2="277.16"/>
    <line class="cls-7" x1="251.62" y1="273.31" x2="251.62" y2="276.81"/>
    <path class="cls-10" d="M243.66,279.73c.97,0,1.72.4,2.24,1.16.52.78.78,1.91.78,3.37s-.26,2.6-.78,3.37c-.53.77-1.27,1.15-2.26,1.15s-1.73-.38-2.24-1.15c-.52-.77-.77-1.9-.77-3.37s.25-2.59.77-3.37c.52-.77,1.27-1.16,2.26-1.16ZM243.66,280.67c-.61,0-1.07.3-1.38.9s-.46,1.5-.46,2.7.14,2.1.46,2.7.77.9,1.38.9,1.07-.3,1.38-.9c.3-.6.46-1.5.46-2.7s-.16-2.1-.46-2.7c-.31-.6-.77-.9-1.38-.9Z"/>
    <rect class="cls-10" x="247.81" y="286.54" width="1.24" height="1.49"/>
    <polygon class="cls-10" points="250.86 287.64 252.79 287.64 252.79 280.97 250.69 281.39 250.69 280.31 252.78 279.89 253.97 279.89 253.97 287.64 255.9 287.64 255.9 288.63 250.86 288.63 250.86 287.64"/>
    <path class="cls-10" d="M257.05,279.87h4.64v1h-3.56v2.15c.17-.06.35-.11.52-.13.17-.02.35-.05.52-.05.97,0,1.74.28,2.32.8.58.54.86,1.26.86,2.17s-.3,1.68-.89,2.2-1.42.77-2.47.77c-.37,0-.74-.04-1.13-.08-.38-.06-.77-.14-1.18-.28v-1.19c.35.19.71.34,1.09.43.37.1.77.13,1.19.13.67,0,1.21-.17,1.61-.53.38-.36.59-.84.59-1.45s-.2-1.08-.59-1.44c-.4-.36-.94-.54-1.61-.54-.31,0-.64.04-.95.11-.31.07-.64.18-.96.32v-4.39Z"/>
    <line class="cls-10" x1="316.55" y1="272.96" x2="316.55" y2="277.16"/>
    <line class="cls-7" x1="316.55" y1="273.31" x2="316.55" y2="276.81"/>
    <path class="cls-10" d="M308.59,279.73c.97,0,1.72.4,2.24,1.16.52.78.78,1.91.78,3.37s-.26,2.6-.78,3.37c-.53.77-1.27,1.15-2.26,1.15s-1.73-.38-2.24-1.15c-.52-.77-.77-1.9-.77-3.37s.25-2.59.77-3.37c.52-.77,1.27-1.16,2.26-1.16ZM308.59,280.67c-.61,0-1.07.3-1.38.9s-.46,1.5-.46,2.7.14,2.1.46,2.7.77.9,1.38.9,1.07-.3,1.38-.9c.3-.6.46-1.5.46-2.7s-.16-2.1-.46-2.7c-.31-.6-.77-.9-1.38-.9Z"/>
    <rect class="cls-10" x="312.74" y="286.54" width="1.24" height="1.49"/>
    <path class="cls-10" d="M316.65,287.65h4.13v1h-5.56v-1c.44-.46,1.06-1.08,1.84-1.87.77-.78,1.26-1.28,1.46-1.51.38-.42.65-.78.79-1.08.14-.29.23-.59.23-.88,0-.46-.17-.84-.49-1.13-.32-.29-.74-.44-1.27-.44-.37,0-.77.07-1.18.19-.41.13-.85.32-1.32.59v-1.2c.48-.19.92-.34,1.33-.43.41-.1.79-.14,1.14-.14.9,0,1.62.23,2.16.68.54.46.82,1.06.82,1.81,0,.36-.07.71-.2,1.02-.13.32-.37.71-.73,1.14-.1.12-.41.44-.94.98-.53.54-1.26,1.3-2.21,2.27Z"/>
    <path class="cls-10" d="M324.49,279.73c.97,0,1.72.4,2.24,1.16.52.78.78,1.91.78,3.37s-.26,2.6-.78,3.37c-.53.77-1.27,1.15-2.26,1.15s-1.73-.38-2.24-1.15c-.52-.77-.77-1.9-.77-3.37s.25-2.59.77-3.37c.52-.77,1.27-1.16,2.26-1.16ZM324.49,280.67c-.61,0-1.07.3-1.38.9s-.46,1.5-.46,2.7.14,2.1.46,2.7.77.9,1.38.9,1.07-.3,1.38-.9c.3-.6.46-1.5.46-2.7s-.16-2.1-.46-2.7c-.31-.6-.77-.9-1.38-.9Z"/>
    <line class="cls-10" x1="381.48" y1="272.96" x2="381.48" y2="277.16"/>
    <line class="cls-7" x1="381.48" y1="273.31" x2="381.48" y2="276.81"/>
    <path class="cls-10" d="M373.53,279.73c.97,0,1.72.4,2.24,1.16.52.78.78,1.91.78,3.37s-.26,2.6-.78,3.37c-.53.77-1.27,1.15-2.26,1.15s-1.73-.38-2.24-1.15c-.52-.77-.77-1.9-.77-3.37s.25-2.59.77-3.37c.52-.77,1.27-1.16,2.26-1.16ZM373.53,280.67c-.61,0-1.07.3-1.38.9s-.46,1.5-.46,2.7.14,2.1.46,2.7.77.9,1.38.9,1.07-.3,1.38-.9c.3-.6.46-1.5.46-2.7s-.16-2.1-.46-2.7c-.31-.6-.77-.9-1.38-.9Z"/>
    <rect class="cls-10" x="377.67" y="286.54" width="1.24" height="1.49"/>
    <path class="cls-10" d="M381.58,287.65h4.13v1h-5.56v-1c.44-.46,1.06-1.08,1.84-1.87.77-.78,1.26-1.28,1.46-1.51.38-.42.65-.78.79-1.08.14-.29.23-.59.23-.88,0-.46-.17-.84-.49-1.13-.32-.29-.74-.44-1.27-.44-.37,0-.77.07-1.18.19-.41.13-.85.32-1.32.59v-1.2c.48-.19.92-.34,1.33-.43.41-.1.79-.14,1.14-.14.9,0,1.62.23,2.16.68.54.46.82,1.06.82,1.81,0,.36-.07.71-.2,1.02-.13.32-.37.71-.73,1.14-.1.12-.41.44-.94.98-.53.54-1.26,1.3-2.21,2.27Z"/>
    <path class="cls-10" d="M386.92,279.87h4.64v1h-3.56v2.15c.17-.06.35-.11.52-.13.17-.02.35-.05.52-.05.97,0,1.74.28,2.32.8.58.54.86,1.26.86,2.17s-.3,1.68-.89,2.2-1.42.77-2.47.77c-.37,0-.74-.04-1.13-.08-.38-.06-.77-.14-1.18-.28v-1.19c.35.19.71.34,1.09.43.37.1.77.13,1.19.13.67,0,1.21-.17,1.61-.53.38-.36.59-.84.59-1.45s-.2-1.08-.59-1.44c-.4-.36-.94-.54-1.61-.54-.31,0-.64.04-.95.11-.31.07-.64.18-.96.32v-4.39Z"/>
    <polygon class="cls-10" points="192.56 297.56 197.58 297.56 197.58 298.55 193.74 298.55 193.74 301.13 197.21 301.13 197.21 302.13 193.74 302.13 193.74 306.31 192.56 306.31 192.56 297.56"/>
    <path class="cls-10" d="M202.46,300.58c-.12-.07-.25-.12-.4-.16-.14-.02-.3-.05-.47-.05-.61,0-1.08.2-1.4.6-.34.4-.49.96-.49,1.7v3.46h-1.08v-6.56h1.08v1.02c.22-.4.52-.7.88-.89.36-.19.8-.29,1.33-.29.07,0,.16.01.25.01.08.01.18.02.3.05v1.1Z"/>
    <path class="cls-10" d="M207.96,302.26c-.01-.59-.18-1.06-.49-1.42-.32-.35-.76-.53-1.28-.53-.6,0-1.08.18-1.44.52-.36.34-.58.82-.62,1.43h3.84ZM209.04,302.57v.53h-4.96c.05.74.26,1.32.67,1.7.4.38.95.58,1.67.58.41,0,.82-.05,1.2-.14.38-.1.78-.25,1.16-.47v1.02c-.38.17-.78.3-1.19.37-.41.07-.83.12-1.24.12-1.06,0-1.88-.3-2.5-.9-.61-.6-.91-1.43-.91-2.47s.29-1.92.86-2.56c.58-.62,1.37-.95,2.35-.95.89,0,1.58.29,2.1.85.5.58.77,1.34.77,2.32Z"/>
    <path class="cls-10" d="M214.92,304.95c-.23.4-.52.68-.86.86-.35.18-.76.28-1.24.28-.79,0-1.44-.31-1.94-.94-.5-.62-.74-1.46-.74-2.5s.24-1.86.74-2.5c.5-.62,1.15-.95,1.94-.95.48,0,.89.1,1.24.29.35.19.64.48.86.86v-1h1.08v9.05h-1.08v-3.47ZM211.24,302.65c0,.79.16,1.42.48,1.87.32.46.77.67,1.34.67s1.02-.22,1.36-.67c.32-.46.49-1.08.49-1.87s-.17-1.4-.49-1.86c-.34-.46-.78-.68-1.36-.68s-1.02.23-1.34.68c-.32.46-.48,1.07-.48,1.86Z"/>
    <rect class="cls-10" x="217.38" y="304.21" width="1.24" height="1.49"/>
    <path class="cls-10" d="M226.1,297.1c-.53.91-.91,1.8-1.16,2.68-.26.88-.38,1.76-.38,2.66s.12,1.8.38,2.68c.25.89.64,1.76,1.16,2.66h-.94c-.59-.92-1.03-1.81-1.32-2.7-.29-.89-.43-1.76-.43-2.64s.14-1.74.43-2.63c.29-.89.72-1.79,1.32-2.71h.94Z"/>
    <polygon class="cls-10" points="227.1 297.56 228.29 297.56 228.29 301.15 232.58 301.15 232.58 297.56 233.77 297.56 233.77 306.31 232.58 306.31 232.58 302.14 228.29 302.14 228.29 306.31 227.1 306.31 227.1 297.56"/>
    <polygon class="cls-10" points="234.33 299.56 239.46 299.56 239.46 300.54 235.4 305.26 239.46 305.26 239.46 306.12 234.19 306.12 234.19 305.14 238.24 300.42 234.33 300.42 234.33 299.56"/>
    <path class="cls-10" d="M240.02,297.1h.94c.58.92,1.02,1.82,1.31,2.71.29.89.44,1.76.44,2.63s-.16,1.75-.44,2.64c-.29.89-.73,1.78-1.31,2.7h-.94c.52-.9.9-1.78,1.16-2.66.25-.88.38-1.76.38-2.68s-.13-1.79-.38-2.66c-.26-.88-.65-1.76-1.16-2.68Z"/>
    <line class="cls-10" x1="40.94" y1="243.95" x2="36.74" y2="243.95"/>
    <line class="cls-7" x1="40.59" y1="243.95" x2="37.09" y2="243.95"/>
    <path class="cls-10" d="M28.93,247.5h4.13v1h-5.56v-1c.44-.46,1.06-1.08,1.84-1.87.77-.78,1.26-1.28,1.46-1.51.38-.42.65-.78.79-1.08.14-.29.23-.59.23-.88,0-.46-.17-.84-.49-1.13s-.74-.44-1.27-.44c-.37,0-.77.07-1.18.19-.41.13-.85.32-1.32.59v-1.2c.48-.19.92-.34,1.33-.43.41-.1.79-.14,1.14-.14.9,0,1.62.23,2.16.68.54.46.82,1.06.82,1.81,0,.36-.07.71-.2,1.02-.13.32-.37.71-.73,1.14-.1.12-.41.44-.94.98-.53.54-1.26,1.3-2.21,2.27Z"/>
    <line class="cls-10" x1="40.94" y1="209.53" x2="36.74" y2="209.53"/>
    <line class="cls-7" x1="40.59" y1="209.53" x2="37.09" y2="209.53"/>
    <path class="cls-10" d="M30.83,205.31h1.49v5.7h1.25v.98h-1.25v2.06h-1.18v-2.06h-3.95v-1.14l3.64-5.54ZM31.14,206.34l-2.99,4.67h2.99v-4.67Z"/>
    <line class="cls-10" x1="40.94" y1="175.12" x2="36.74" y2="175.12"/>
    <line class="cls-7" x1="40.59" y1="175.12" x2="37.09" y2="175.12"/>
    <path class="cls-10" d="M32.9,171.09v1.08c-.3-.14-.6-.25-.9-.32-.31-.07-.61-.11-.9-.11-.79,0-1.39.26-1.8.79-.41.53-.65,1.33-.7,2.39.23-.34.52-.6.86-.78.35-.18.73-.28,1.15-.28.88,0,1.57.28,2.08.8.5.53.77,1.26.77,2.17s-.28,1.62-.8,2.16c-.53.54-1.24.8-2.11.8-1.01,0-1.79-.38-2.32-1.15-.54-.77-.8-1.9-.8-3.37,0-1.38.32-2.48.98-3.3.65-.82,1.54-1.24,2.64-1.24.29,0,.59.04.9.08.3.06.61.14.95.26ZM30.55,174.79c-.53,0-.95.19-1.26.55s-.47.86-.47,1.49.16,1.14.47,1.5.73.54,1.26.54.95-.18,1.26-.54.47-.86.47-1.5-.16-1.13-.47-1.49-.73-.55-1.26-.55Z"/>
    <line class="cls-10" x1="40.94" y1="140.7" x2="36.74" y2="140.7"/>
    <line class="cls-7" x1="40.59" y1="140.7" x2="37.09" y2="140.7"/>
    <path class="cls-10" d="M28.79,138.69c0,.46.13.82.42,1.07.29.25.68.37,1.2.37s.9-.12,1.19-.37c.29-.25.43-.61.43-1.07s-.14-.8-.43-1.06c-.29-.25-.68-.38-1.19-.38s-.91.13-1.2.38c-.29.25-.42.6-.42,1.06ZM29.22,140.57c-.5-.12-.9-.36-1.19-.71-.29-.35-.42-.77-.42-1.27,0-.7.24-1.25.74-1.66.49-.41,1.18-.61,2.05-.61s1.55.2,2.05.61c.49.41.74.96.74,1.66,0,.5-.14.92-.43,1.27-.29.35-.67.59-1.18.71.56.13,1.01.4,1.33.78.31.38.48.86.48,1.42,0,.85-.26,1.5-.78,1.94-.53.46-1.27.67-2.23.67s-1.7-.22-2.22-.67c-.52-.44-.77-1.09-.77-1.94,0-.55.16-1.03.48-1.42.31-.38.76-.65,1.33-.78ZM30.41,141.07c-.56,0-1.01.16-1.33.46s-.48.71-.48,1.24.16.95.48,1.25.77.44,1.33.44,1-.14,1.32-.46c.32-.3.49-.71.49-1.24s-.17-.94-.48-1.24c-.32-.3-.77-.46-1.33-.46Z"/>
    <line class="cls-10" x1="40.94" y1="106.28" x2="36.74" y2="106.28"/>
    <line class="cls-7" x1="40.59" y1="106.28" x2="37.09" y2="106.28"/>
    <polygon class="cls-10" points="21.71 109.81 23.64 109.81 23.64 103.13 21.54 103.55 21.54 102.47 23.63 102.05 24.81 102.05 24.81 109.81 26.75 109.81 26.75 110.8 21.71 110.8 21.71 109.81"/>
    <path class="cls-10" d="M30.41,101.9c.97,0,1.72.4,2.24,1.16.52.78.78,1.91.78,3.37s-.26,2.6-.78,3.37c-.53.77-1.27,1.15-2.26,1.15s-1.73-.38-2.24-1.15c-.52-.77-.77-1.9-.77-3.37s.25-2.59.77-3.37c.52-.77,1.27-1.16,2.26-1.16ZM30.41,102.83c-.61,0-1.07.3-1.38.9s-.46,1.5-.46,2.7.14,2.1.46,2.7.77.9,1.38.9,1.07-.3,1.38-.9c.3-.6.46-1.5.46-2.7s-.16-2.1-.46-2.7c-.31-.6-.77-.9-1.38-.9Z"/>
    <line class="cls-10" x1="40.94" y1="71.86" x2="36.74" y2="71.86"/>
    <line class="cls-7" x1="40.59" y1="71.86" x2="37.09" y2="71.86"/>
    <polygon class="cls-10" points="21.71 75.39 23.64 75.39 23.64 68.72 21.54 69.14 21.54 68.06 23.63 67.64 24.81 67.64 24.81 75.39 26.75 75.39 26.75 76.38 21.71 76.38 21.71 75.39"/>
    <path class="cls-10" d="M28.93,75.4h4.13v1h-5.56v-1c.44-.46,1.06-1.08,1.84-1.87.77-.78,1.26-1.28,1.46-1.51.38-.42.65-.78.79-1.08.14-.29.23-.59.23-.88,0-.46-.17-.84-.49-1.13s-.74-.44-1.27-.44c-.37,0-.77.07-1.18.19-.41.13-.85.32-1.32.59v-1.2c.48-.19.92-.34,1.33-.43s.79-.14,1.14-.14c.9,0,1.62.23,2.16.68.54.46.82,1.06.82,1.81,0,.36-.07.71-.2,1.02-.13.32-.37.71-.73,1.14-.1.12-.41.44-.94.98s-1.26,1.3-2.21,2.27Z"/>
    <line class="cls-10" x1="40.94" y1="37.44" x2="36.74" y2="37.44"/>
    <line class="cls-7" x1="40.59" y1="37.44" x2="37.09" y2="37.44"/>
    <polygon class="cls-10" points="21.71 40.97 23.64 40.97 23.64 34.3 21.54 34.72 21.54 33.64 23.63 33.22 24.81 33.22 24.81 40.97 26.75 40.97 26.75 41.96 21.71 41.96 21.71 40.97"/>
    <path class="cls-10" d="M30.83,33.22h1.49v5.7h1.25v.98h-1.25v2.06h-1.18v-2.06h-3.95v-1.14l3.64-5.54ZM31.14,34.25l-2.99,4.67h2.99v-4.67Z"/>
    <path class="cls-10" d="M2.77,168.3v-2.68c0-.97.23-1.72.67-2.22s1.09-.76,1.94-.76,1.52.25,1.96.76c.44.5.66,1.25.66,2.22v1.49h3.52v1.19H2.77ZM3.75,167.11h3.29v-1.49c0-.55-.13-.97-.42-1.27-.29-.3-.7-.46-1.22-.46s-.92.16-1.21.46c-.29.3-.43.72-.43,1.27v1.49Z"/>
    <path class="cls-10" d="M3.06,157.01h1.15c-.22.46-.37.88-.48,1.27-.1.41-.16.79-.16,1.15,0,.65.13,1.15.37,1.5.25.35.61.52,1.07.52.38,0,.68-.11.88-.35.2-.23.36-.67.48-1.32l.14-.72c.17-.88.47-1.52.89-1.94.43-.42,1-.64,1.7-.64.85,0,1.49.29,1.92.85.43.58.65,1.4.65,2.5,0,.42-.05.86-.13,1.33-.08.47-.22.95-.41,1.44h-1.22c.28-.48.48-.95.61-1.4.14-.46.2-.91.2-1.37,0-.67-.13-1.19-.4-1.56-.26-.36-.64-.55-1.14-.55-.43,0-.77.13-1.01.4-.24.26-.42.7-.54,1.3l-.14.72c-.17.89-.44,1.52-.83,1.92-.37.4-.89.59-1.56.59-.77,0-1.38-.26-1.82-.82-.44-.54-.67-1.3-.67-2.26,0-.41.04-.82.11-1.25.07-.42.19-.85.34-1.31Z"/>
    <path class="cls-10" d="M2.77,156.06v-2.44c0-1.69.36-2.94,1.06-3.73.71-.79,1.81-1.19,3.31-1.19s2.62.41,3.32,1.2,1.06,2.04,1.06,3.72v2.44H2.77ZM3.75,154.88h6.8v-1.43c0-1.2-.26-2.09-.82-2.65-.55-.55-1.42-.84-2.59-.84s-2.03.29-2.58.84c-.54.56-.82,1.45-.82,2.65v1.43Z"/>
    <path class="cls-10" d="M2.31,142.23c.91.53,1.8.91,2.68,1.16.88.26,1.76.38,2.66.38s1.8-.12,2.68-.38c.89-.25,1.76-.64,2.66-1.16v.94c-.92.59-1.81,1.03-2.7,1.32-.89.29-1.76.43-2.64.43s-1.74-.14-2.63-.43c-.89-.29-1.79-.72-2.71-1.32v-.94Z"/>
    <polygon class="cls-10" points="2.77 142.24 2.77 141.04 10.17 139.21 2.77 137.37 2.77 136.04 10.17 134.2 2.77 132.37 2.77 131.17 11.52 133.36 11.52 134.85 3.93 136.7 11.52 138.56 11.52 140.05 2.77 142.24"/>
    <polygon class="cls-10" points="2.68 129.05 2.68 128.05 12.53 131.1 12.53 132.1 2.68 129.05"/>
    <polygon class="cls-10" points="2.77 127.97 2.77 126.78 6.36 126.78 6.36 122.48 2.77 122.48 2.77 121.29 11.52 121.29 11.52 122.48 7.36 122.48 7.36 126.78 11.52 126.78 11.52 127.97 2.77 127.97"/>
    <polygon class="cls-10" points="4.78 120.74 4.78 115.61 5.76 115.61 10.48 119.67 10.48 115.61 11.34 115.61 11.34 120.88 10.36 120.88 5.64 116.82 5.64 120.74 4.78 120.74"/>
    <path class="cls-10" d="M2.31,115.04v-.94c.92-.58,1.82-1.02,2.71-1.31.89-.29,1.76-.44,2.63-.44s1.75.16,2.64.44c.89.29,1.78.73,2.7,1.31v.94c-.9-.52-1.78-.9-2.66-1.16-.88-.25-1.76-.38-2.68-.38s-1.79.13-2.66.38c-.88.26-1.76.65-2.68,1.16Z"/>
    <g class="cls-1">
      <polyline class="cls-4" points="56.82 241.68 66.97 115.53 77.11 103.83 87.26 101.6 97.41 137.52 107.55 163.94 117.7 166.3 127.84 177.31 137.99 176.93 148.13 176.64 158.28 195.7 168.42 211.39 178.57 207.62 188.71 211.57 198.86 209.48 209.01 221.2 219.15 233.05 229.3 234.23 239.44 240.15 249.59 241.98 259.73 246.54 269.88 248.74 280.02 248.12 290.17 250.26 300.31 251.65 310.46 250.39 320.61 249.19 330.75 248.33 340.9 244.93 351.04 244.19 361.19 243.82 371.33 242.33 381.48 260.65"/>
    </g>
    <g class="cls-11">
      <polyline class="cls-6" points="56.82 227.8 66.97 57.64 77.11 67.79 87.26 82.92 97.41 132.12 107.55 174.38 117.7 167.8 127.84 164.76 137.99 187.93 148.13 198.52 158.28 201.4 168.42 208.16 178.57 213.81 188.71 225.32 198.86 227.77 209.01 228.24 219.15 241.32 229.3 242.87 239.44 245.97 249.59 244.89 259.73 245.69 269.88 248.69 280.02 249.13 290.17 250.93 300.31 251.38 310.46 250.01 320.61 248.94 330.75 248.97 340.9 245.39 351.04 244.89 361.19 244.6 371.33 243.17 381.48 261.22"/>
    </g>
    <g class="cls-13">
      <polyline class="cls-8" points="56.82 233.65 66.97 57.87 77.11 42.54 87.26 111.51 97.41 161.46 107.55 169.28 117.7 168.81 127.84 196.41 137.99 211.71 148.13 215.17 158.28 211.12 168.42 210.55 178.57 209.45 188.71 224.69 198.86 227.99 209.01 237.34 219.15 240.59 229.3 241.45 239.44 243.12 249.59 243.67 259.73 245.38 269.88 246.51 280.02 246.14 290.17 246.88 300.31 247.75 310.46 246.24 320.61 245.93 330.75 245.73 340.9 243.76 351.04 244.01 361.19 243.91 371.33 242.17 381.48 260.81"/>
    </g>
    <g class="cls-12">
      <polyline class="cls-5" points="56.82 218.83 66.97 19.3 77.11 36.02 87.26 97.34 97.41 158.7 107.55 174.97 117.7 175.66 127.84 198.25 137.99 213.7 148.13 214.83 158.28 208.77 168.42 214.31 178.57 219.1 188.71 231.05 198.86 234.07 209.01 239.68 219.15 243.77 229.3 244.74 239.44 247.41 249.59 248.43 259.73 249.65 269.88 250.6 280.02 250.27 290.17 251.15 300.31 251.47 310.46 249.77 320.61 248.35 330.75 247.03 340.9 242.27 351.04 241.5 361.19 240.33 371.33 238.42 381.48 258.31"/>
    </g>
    <line class="cls-2" x1="40.59" y1="273.31" x2="40.59" y2="7.2"/>
    <line class="cls-2" x1="40.59" y1="273.31" x2="397.71" y2="273.31"/>
    <polyline class="cls-4" points="308.45 20.29 318.45 20.29 328.45 20.29"/>
    <path class="cls-10" d="M339.19,15.77h1.34l3.34,8.75h-1.24l-.79-2.24h-3.95l-.79,2.24h-1.25l3.34-8.75ZM339.87,16.94l-1.61,4.36h3.22l-1.61-4.36Z"/>
    <path class="cls-10" d="M351.14,16.45v1.25c-.41-.36-.83-.64-1.28-.83-.46-.18-.92-.28-1.43-.28-1.01,0-1.78.31-2.3.92s-.79,1.49-.79,2.64.26,2.04.79,2.65c.53.61,1.3.91,2.3.91.5,0,.97-.08,1.43-.28.46-.18.88-.46,1.28-.83v1.24c-.42.29-.86.49-1.32.62-.46.13-.95.2-1.46.2-1.32,0-2.36-.4-3.13-1.2-.77-.8-1.14-1.91-1.14-3.32s.37-2.51,1.14-3.32c.77-.8,1.81-1.21,3.13-1.21.53,0,1.02.07,1.48.2.46.14.9.35,1.31.62Z"/>
    <polyline class="cls-6" points="308.45 34.97 318.45 34.97 328.45 34.97"/>
    <path class="cls-10" d="M341.23,32.64v1.02c-.31-.14-.62-.26-.95-.35-.34-.07-.67-.12-1.02-.12-.54,0-.95.08-1.21.25-.26.17-.4.41-.4.73,0,.25.1.44.29.59s.58.29,1.15.41l.37.08c.77.17,1.31.41,1.63.7.31.3.48.72.48,1.25,0,.61-.24,1.09-.72,1.44-.48.36-1.15.53-1.99.53-.36,0-.72-.04-1.1-.1-.38-.06-.78-.16-1.2-.3v-1.12c.4.22.79.37,1.18.47.38.11.77.16,1.15.16.5,0,.9-.08,1.18-.25.26-.17.41-.42.41-.74,0-.29-.11-.52-.3-.67-.19-.16-.62-.31-1.3-.46l-.37-.08c-.67-.14-1.16-.36-1.45-.65-.3-.29-.44-.68-.44-1.2,0-.61.22-1.09.65-1.43.43-.34,1.06-.5,1.87-.5.4,0,.77.04,1.13.1.35.06.67.14.97.25Z"/>
    <path class="cls-10" d="M343.16,30.45h2.68c.97,0,1.72.23,2.22.67.5.44.76,1.09.76,1.94s-.25,1.52-.76,1.96c-.5.44-1.25.66-2.22.66h-1.49v3.52h-1.19v-8.75ZM344.35,31.42v3.29h1.49c.55,0,.97-.13,1.27-.42s.46-.7.46-1.22-.16-.92-.46-1.21-.72-.43-1.27-.43h-1.49Z"/>
    <polygon class="cls-10" points="349 30.45 350.76 30.45 352.99 36.4 355.24 30.45 357 30.45 357 39.19 355.85 39.19 355.85 31.51 353.59 37.51 352.41 37.51 350.15 31.51 350.15 39.19 349 39.19 349 30.45"/>
    <polygon class="cls-10" points="359.08 32.45 360.22 32.45 362.27 37.96 364.33 32.45 365.47 32.45 363.01 39.01 361.54 39.01 359.08 32.45"/>
    <polyline class="cls-8" points="308.45 49.64 318.45 49.64 328.45 49.64"/>
    <path class="cls-10" d="M341.62,50.21c0-.79-.17-1.4-.49-1.86-.34-.46-.78-.68-1.34-.68s-1.02.23-1.34.68c-.34.46-.49,1.07-.49,1.86s.16,1.42.49,1.87c.32.46.77.67,1.34.67s1.01-.22,1.34-.67c.32-.46.49-1.08.49-1.87ZM337.95,52.51v3.47h-1.08v-9.05h1.08v1c.22-.38.5-.67.85-.86.35-.19.77-.29,1.25-.29.79,0,1.44.32,1.94.95.49.64.74,1.46.74,2.5s-.25,1.87-.74,2.5c-.5.62-1.15.94-1.94.94-.48,0-.9-.1-1.25-.28-.35-.18-.64-.47-.85-.86Z"/>
    <path class="cls-10" d="M347.22,48.14c-.12-.07-.25-.12-.4-.16-.14-.02-.3-.05-.47-.05-.61,0-1.08.2-1.4.6-.34.4-.49.96-.49,1.7v3.46h-1.08v-6.56h1.08v1.02c.22-.4.52-.7.88-.89.36-.19.8-.29,1.33-.29.07,0,.16.01.25.01.08.01.18.02.3.05v1.1Z"/>
    <path class="cls-10" d="M351.73,49.82c-.01-.59-.18-1.06-.49-1.42-.32-.35-.76-.53-1.28-.53-.6,0-1.08.18-1.44.52-.36.34-.58.82-.62,1.43h3.84ZM352.81,50.13v.53h-4.96c.05.74.26,1.32.67,1.7.4.38.95.58,1.67.58.41,0,.82-.05,1.2-.14.38-.1.78-.25,1.16-.47v1.02c-.38.17-.78.3-1.19.37-.41.07-.83.12-1.24.12-1.06,0-1.88-.3-2.5-.9s-.91-1.43-.91-2.47.29-1.92.86-2.56c.58-.62,1.37-.95,2.35-.95.89,0,1.58.29,2.1.85.5.58.77,1.34.77,2.32Z"/>
    <path class="cls-10" d="M358.15,47.37v1.01c-.31-.17-.61-.29-.92-.37-.31-.08-.61-.13-.92-.13-.7,0-1.25.23-1.63.67-.38.44-.58,1.07-.58,1.86s.19,1.43.58,1.87c.38.44.94.66,1.63.66.31,0,.61-.04.92-.12.31-.08.61-.22.92-.38v1c-.31.14-.62.25-.94.31-.32.06-.67.1-1.03.1-.98,0-1.78-.3-2.35-.92-.59-.61-.88-1.45-.88-2.51s.29-1.91.88-2.52c.59-.61,1.39-.92,2.42-.92.34,0,.66.04.97.11.31.07.62.17.92.3Z"/>
    <path class="cls-10" d="M361.44,46.96h0ZM358.73,51.09v-3.97h1.08v3.94c0,.62.12,1.08.36,1.39.24.31.6.47,1.09.47.58,0,1.04-.18,1.38-.55.34-.37.5-.88.5-1.52v-3.72h1.08v6.56h-1.08v-1.01c-.26.41-.58.7-.91.89-.35.18-.74.28-1.2.28-.76,0-1.33-.23-1.72-.7-.4-.46-.59-1.14-.59-2.05Z"/>
    <path class="cls-10" d="M370.62,49.74v3.96h-1.08v-3.92c0-.62-.13-1.08-.37-1.39-.24-.31-.6-.47-1.08-.47-.59,0-1.04.19-1.38.56s-.5.88-.5,1.51v3.71h-1.08v-6.56h1.08v1.02c.25-.38.55-.68.91-.88.35-.19.76-.3,1.21-.3.74,0,1.32.24,1.7.71.38.47.59,1.15.59,2.05Z"/>
    <path class="cls-10" d="M376.06,49.82c-.01-.59-.18-1.06-.49-1.42-.32-.35-.76-.53-1.28-.53-.6,0-1.08.18-1.44.52-.36.34-.58.82-.62,1.43h3.84ZM377.14,50.13v.53h-4.96c.05.74.26,1.32.67,1.7.4.38.95.58,1.67.58.41,0,.82-.05,1.2-.14.38-.1.78-.25,1.16-.47v1.02c-.38.17-.78.3-1.19.37-.41.07-.83.12-1.24.12-1.06,0-1.88-.3-2.5-.9s-.91-1.43-.91-2.47.29-1.92.86-2.56c.58-.62,1.37-.95,2.35-.95.89,0,1.58.29,2.1.85.5.58.77,1.34.77,2.32Z"/>
    <path class="cls-10" d="M380.27,46.96h0ZM377.56,51.09v-3.97h1.08v3.94c0,.62.12,1.08.36,1.39.24.31.6.47,1.09.47.58,0,1.04-.18,1.38-.55.34-.37.5-.88.5-1.52v-3.72h1.08v6.56h-1.08v-1.01c-.26.41-.58.7-.91.89-.35.18-.74.28-1.2.28-.76,0-1.33-.23-1.72-.7-.4-.46-.59-1.14-.59-2.05Z"/>
    <path class="cls-10" d="M389.3,47.31v1.02c-.31-.14-.62-.26-.95-.35-.34-.07-.67-.12-1.02-.12-.54,0-.95.08-1.21.25-.26.17-.4.41-.4.73,0,.25.1.44.29.59s.58.29,1.15.41l.37.08c.77.17,1.31.41,1.63.7.31.3.48.72.48,1.25,0,.61-.24,1.09-.72,1.44-.48.36-1.15.53-1.99.53-.36,0-.72-.04-1.1-.1-.38-.06-.78-.16-1.2-.3v-1.12c.4.22.79.37,1.18.47.38.11.77.16,1.15.16.5,0,.9-.08,1.18-.25.26-.17.41-.42.41-.74,0-.29-.11-.52-.3-.67-.19-.16-.62-.31-1.3-.46l-.37-.08c-.67-.14-1.16-.36-1.45-.65-.3-.29-.44-.68-.44-1.2,0-.61.22-1.09.65-1.43.43-.34,1.06-.5,1.87-.5.4,0,.77.04,1.13.1.35.06.67.14.97.25Z"/>
    <polyline class="cls-5" points="308.45 64.31 318.45 64.31 328.45 64.31"/>
    <path class="cls-10" d="M341.62,64.89c0-.79-.17-1.4-.49-1.86-.34-.46-.78-.68-1.34-.68s-1.02.23-1.34.68c-.34.46-.49,1.07-.49,1.86s.16,1.42.49,1.87c.32.46.77.67,1.34.67s1.01-.22,1.34-.67c.32-.46.49-1.08.49-1.87ZM337.95,67.18v3.47h-1.08v-9.05h1.08v1c.22-.38.5-.67.85-.86.35-.19.77-.29,1.25-.29.79,0,1.44.32,1.94.95.49.64.74,1.46.74,2.5s-.25,1.87-.74,2.5c-.5.62-1.15.94-1.94.94-.48,0-.9-.1-1.25-.28-.35-.18-.64-.47-.85-.86Z"/>
    <path class="cls-10" d="M347.22,62.81c-.12-.07-.25-.12-.4-.16-.14-.02-.3-.05-.47-.05-.61,0-1.08.2-1.4.6-.34.4-.49.96-.49,1.7v3.46h-1.08v-6.56h1.08v1.02c.22-.4.52-.7.88-.89.36-.19.8-.29,1.33-.29.07,0,.16.01.25.01.08.01.18.02.3.05v1.1Z"/>
    <path class="cls-10" d="M351.73,64.49c-.01-.59-.18-1.06-.49-1.42-.32-.35-.76-.53-1.28-.53-.6,0-1.08.18-1.44.52-.36.34-.58.82-.62,1.43h3.84ZM352.81,64.8v.53h-4.96c.05.74.26,1.32.67,1.7.4.38.95.58,1.67.58.41,0,.82-.05,1.2-.14s.78-.25,1.16-.47v1.02c-.38.17-.78.3-1.19.37-.41.07-.83.12-1.24.12-1.06,0-1.88-.3-2.5-.9s-.91-1.43-.91-2.47.29-1.92.86-2.56c.58-.62,1.37-.95,2.35-.95.89,0,1.58.29,2.1.85.5.58.77,1.34.77,2.32Z"/>
    <path class="cls-10" d="M356.89,59.45v.9h-1.03c-.38,0-.66.08-.8.24-.16.16-.23.43-.23.84v.58h1.78v.84h-1.78v5.72h-1.08v-5.72h-1.03v-.84h1.03v-.46c0-.72.17-1.26.5-1.6.34-.34.88-.5,1.62-.5h1.02Z"/>
    <path class="cls-10" d="M360.79,62.81c-.12-.07-.25-.12-.4-.16-.14-.02-.3-.05-.47-.05-.61,0-1.08.2-1.4.6-.34.4-.49.96-.49,1.7v3.46h-1.08v-6.56h1.08v1.02c.22-.4.52-.7.88-.89.36-.19.8-.29,1.33-.29.07,0,.16.01.25.01.08.01.18.02.3.05v1.1Z"/>
    <path class="cls-10" d="M363.31,61.64c.94,0,1.67.31,2.21.91.53.61.8,1.45.8,2.53s-.28,1.92-.8,2.52c-.54.61-1.27.91-2.21.91s-1.69-.3-2.22-.91c-.53-.6-.79-1.44-.79-2.52s.26-1.92.79-2.53c.53-.6,1.27-.91,2.22-.91ZM363.31,62.55c-.58,0-1.03.23-1.37.68-.34.46-.5,1.07-.5,1.85s.16,1.4.49,1.86c.34.46.79.67,1.38.67s1.03-.22,1.37-.67c.34-.46.5-1.07.5-1.86s-.17-1.39-.5-1.85c-.34-.46-.79-.68-1.37-.68Z"/>
    <path class="cls-10" d="M372.32,64.41v3.96h-1.08v-3.92c0-.62-.13-1.08-.37-1.39-.24-.31-.6-.47-1.08-.47-.59,0-1.04.19-1.38.56-.34.37-.5.88-.5,1.51v3.71h-1.08v-6.56h1.08v1.02c.25-.38.55-.68.91-.88.35-.19.76-.3,1.21-.3.74,0,1.32.24,1.7.71s.59,1.15.59,2.05Z"/>
    <path class="cls-10" d="M374.51,60.09v1.86h2.22v.84h-2.22v3.56c0,.54.07.89.22,1.03.14.16.44.23.9.23h1.1v.9h-1.1c-.84,0-1.42-.16-1.73-.47-.31-.31-.47-.88-.47-1.69v-3.56h-.79v-.84h.79v-1.86h1.08Z"/>
    <path class="cls-10" d="M382.31,64.61v3.74h-1.08v-1c-.25.41-.56.7-.92.88-.36.18-.82.28-1.34.28-.67,0-1.21-.18-1.61-.55-.4-.37-.59-.88-.59-1.51,0-.73.24-1.28.74-1.67.49-.37,1.22-.56,2.21-.56h1.51v-.11c0-.49-.17-.88-.49-1.15-.32-.26-.78-.41-1.37-.41-.38,0-.74.05-1.1.14-.36.1-.7.23-1.02.4v-1c.38-.14.77-.26,1.14-.34s.73-.12,1.09-.12c.95,0,1.66.25,2.12.74.47.49.71,1.24.71,2.23ZM380.16,65.06c-.88,0-1.48.11-1.81.3-.34.2-.5.54-.5,1.02,0,.38.12.7.37.91.25.23.6.34,1.03.34.6,0,1.08-.2,1.44-.64.36-.42.54-.98.54-1.69v-.24h-1.07Z"/>
    <rect class="cls-10" x="383.61" y="59.45" width="1.08" height="9.12"/>
  </g>
</svg>