<?xml version="1.0" encoding="UTF-8"?>
<svg xmlns="http://www.w3.org/2000/svg" xmlns:xlink="http://www.w3.org/1999/xlink" version="1.1" viewBox="0 0 404.91 310.86">
  <defs>
    <style>
      .cls-1 {
        clip-path: url(#clippath);
      }

      .cls-2, .cls-3, .cls-4, .cls-5 {
        fill: none;
      }

      .cls-2, .cls-6 {
        stroke-miterlimit: 10;
      }

      .cls-2, .cls-6, .cls-4 {
        stroke-linecap: square;
      }

      .cls-2, .cls-6, .cls-5 {
        stroke-width: .8px;
      }

      .cls-2, .cls-5 {
        stroke: #fff;
      }

      .cls-3, .cls-7 {
        stroke-width: 0px;
      }

      .cls-6 {
        fill: #000;
        stroke: #000;
      }

      .cls-4 {
        stroke: #ffffd4;
        stroke-width: 2px;
      }

      .cls-4, .cls-5 {
        stroke-linejoin: round;
      }

      .cls-7 {
        fill: #fff;
      }
    </style>
    <clipPath id="clippath">
      <rect class="cls-3" x="40.59" y="7.2" width="357.12" height="266.11"/>
    </clipPath>
  </defs>
  <g id="Layer_2" data-name="Layer 2">
    <rect class="cls-6" x="-286" y="-182.02" width="994" height="695"/>
  </g>
  <g id="Layer_1" data-name="Layer 1">
    <line class="cls-7" x1="56.82" y1="272.96" x2="56.82" y2="277.16"/>
    <line class="cls-5" x1="56.82" y1="273.31" x2="56.82" y2="276.81"/>
    <path class="cls-7" d="M48.87,279.73c.97,0,1.72.4,2.24,1.16.52.78.78,1.91.78,3.37s-.26,2.6-.78,3.37c-.53.77-1.27,1.15-2.26,1.15s-1.73-.38-2.24-1.15-.77-1.9-.77-3.37.25-2.59.77-3.37c.52-.77,1.27-1.16,2.26-1.16ZM48.87,280.67c-.61,0-1.07.3-1.38.9-.31.6-.46,1.5-.46,2.7s.14,2.1.46,2.7c.31.6.77.9,1.38.9s1.07-.3,1.38-.9c.3-.6.46-1.5.46-2.7s-.16-2.1-.46-2.7c-.31-.6-.77-.9-1.38-.9Z"/>
    <rect class="cls-7" x="53.02" y="286.54" width="1.24" height="1.49"/>
    <path class="cls-7" d="M58.41,279.73c.97,0,1.72.4,2.24,1.16.52.78.78,1.91.78,3.37s-.26,2.6-.78,3.37c-.53.77-1.27,1.15-2.26,1.15s-1.73-.38-2.24-1.15-.77-1.9-.77-3.37.25-2.59.77-3.37c.52-.77,1.27-1.16,2.26-1.16ZM58.41,280.67c-.61,0-1.07.3-1.38.9-.31.6-.46,1.5-.46,2.7s.14,2.1.46,2.7c.31.6.77.9,1.38.9s1.07-.3,1.38-.9c.3-.6.46-1.5.46-2.7s-.16-2.1-.46-2.7c-.31-.6-.77-.9-1.38-.9Z"/>
    <path class="cls-7" d="M64.77,279.73c.97,0,1.72.4,2.24,1.16.52.78.78,1.91.78,3.37s-.26,2.6-.78,3.37c-.53.77-1.27,1.15-2.26,1.15s-1.73-.38-2.24-1.15-.77-1.9-.77-3.37.25-2.59.77-3.37c.52-.77,1.27-1.16,2.26-1.16ZM64.77,280.67c-.61,0-1.07.3-1.38.9-.31.6-.46,1.5-.46,2.7s.14,2.1.46,2.7c.31.6.77.9,1.38.9s1.07-.3,1.38-.9c.3-.6.46-1.5.46-2.7s-.16-2.1-.46-2.7c-.31-.6-.77-.9-1.38-.9Z"/>
    <line class="cls-7" x1="121.75" y1="272.96" x2="121.75" y2="277.16"/>
    <line class="cls-5" x1="121.75" y1="273.31" x2="121.75" y2="276.81"/>
    <path class="cls-7" d="M113.8,279.73c.97,0,1.72.4,2.24,1.16.52.78.78,1.91.78,3.37s-.26,2.6-.78,3.37c-.53.77-1.27,1.15-2.26,1.15s-1.73-.38-2.24-1.15-.77-1.9-.77-3.37.25-2.59.77-3.37c.52-.77,1.27-1.16,2.26-1.16ZM113.8,280.67c-.61,0-1.07.3-1.38.9s-.46,1.5-.46,2.7.14,2.1.46,2.7.77.9,1.38.9,1.07-.3,1.38-.9c.3-.6.46-1.5.46-2.7s-.16-2.1-.46-2.7c-.31-.6-.77-.9-1.38-.9Z"/>
    <rect class="cls-7" x="117.95" y="286.54" width="1.24" height="1.49"/>
    <path class="cls-7" d="M123.34,279.73c.97,0,1.72.4,2.24,1.16.52.78.78,1.91.78,3.37s-.26,2.6-.78,3.37c-.53.77-1.27,1.15-2.26,1.15s-1.73-.38-2.24-1.15-.77-1.9-.77-3.37.25-2.59.77-3.37c.52-.77,1.27-1.16,2.26-1.16ZM123.34,280.67c-.61,0-1.07.3-1.38.9s-.46,1.5-.46,2.7.14,2.1.46,2.7.77.9,1.38.9,1.07-.3,1.38-.9c.3-.6.46-1.5.46-2.7s-.16-2.1-.46-2.7c-.31-.6-.77-.9-1.38-.9Z"/>
    <path class="cls-7" d="M127.19,279.87h4.64v1h-3.56v2.15c.17-.06.35-.11.52-.13.17-.02.35-.05.52-.05.97,0,1.74.28,2.32.8.58.54.86,1.26.86,2.17s-.3,1.68-.89,2.2c-.59.52-1.42.77-2.47.77-.37,0-.74-.04-1.13-.08-.38-.06-.77-.14-1.18-.28v-1.19c.35.19.71.34,1.09.43.37.1.77.13,1.19.13.67,0,1.21-.17,1.61-.53.38-.36.59-.84.59-1.45s-.2-1.08-.59-1.44c-.4-.36-.94-.54-1.61-.54-.31,0-.64.04-.95.11-.31.07-.64.18-.96.32v-4.39Z"/>
    <line class="cls-7" x1="186.69" y1="272.96" x2="186.69" y2="277.16"/>
    <line class="cls-5" x1="186.69" y1="273.31" x2="186.69" y2="276.81"/>
    <path class="cls-7" d="M178.73,279.73c.97,0,1.72.4,2.24,1.16.52.78.78,1.91.78,3.37s-.26,2.6-.78,3.37c-.53.77-1.27,1.15-2.26,1.15s-1.73-.38-2.24-1.15c-.52-.77-.77-1.9-.77-3.37s.25-2.59.77-3.37c.52-.77,1.27-1.16,2.26-1.16ZM178.73,280.67c-.61,0-1.07.3-1.38.9s-.46,1.5-.46,2.7.14,2.1.46,2.7.77.9,1.38.9,1.07-.3,1.38-.9c.3-.6.46-1.5.46-2.7s-.16-2.1-.46-2.7c-.31-.6-.77-.9-1.38-.9Z"/>
    <rect class="cls-7" x="182.88" y="286.54" width="1.24" height="1.49"/>
    <polygon class="cls-7" points="185.93 287.64 187.86 287.64 187.86 280.97 185.76 281.39 185.76 280.31 187.85 279.89 189.03 279.89 189.03 287.64 190.97 287.64 190.97 288.63 185.93 288.63 185.93 287.64"/>
    <path class="cls-7" d="M194.63,279.73c.97,0,1.72.4,2.24,1.16.52.78.78,1.91.78,3.37s-.26,2.6-.78,3.37c-.53.77-1.27,1.15-2.26,1.15s-1.73-.38-2.24-1.15c-.52-.77-.77-1.9-.77-3.37s.25-2.59.77-3.37c.52-.77,1.27-1.16,2.26-1.16ZM194.63,280.67c-.61,0-1.07.3-1.38.9s-.46,1.5-.46,2.7.14,2.1.46,2.7.77.9,1.38.9,1.07-.3,1.38-.9c.3-.6.46-1.5.46-2.7s-.16-2.1-.46-2.7c-.31-.6-.77-.9-1.38-.9Z"/>
    <line class="cls-7" x1="251.62" y1="272.96" x2="251.62" y2="277.16"/>
    <line class="cls-5" x1="251.62" y1="273.31" x2="251.62" y2="276.81"/>
    <path class="cls-7" d="M243.66,279.73c.97,0,1.72.4,2.24,1.16.52.78.78,1.91.78,3.37s-.26,2.6-.78,3.37c-.53.77-1.27,1.15-2.26,1.15s-1.73-.38-2.24-1.15c-.52-.77-.77-1.9-.77-3.37s.25-2.59.77-3.37c.52-.77,1.27-1.16,2.26-1.16ZM243.66,280.67c-.61,0-1.07.3-1.38.9s-.46,1.5-.46,2.7.14,2.1.46,2.7.77.9,1.38.9,1.07-.3,1.38-.9c.3-.6.46-1.5.46-2.7s-.16-2.1-.46-2.7c-.31-.6-.77-.9-1.38-.9Z"/>
    <rect class="cls-7" x="247.81" y="286.54" width="1.24" height="1.49"/>
    <polygon class="cls-7" points="250.86 287.64 252.79 287.64 252.79 280.97 250.69 281.39 250.69 280.31 252.78 279.89 253.97 279.89 253.97 287.64 255.9 287.64 255.9 288.63 250.86 288.63 250.86 287.64"/>
    <path class="cls-7" d="M257.05,279.87h4.64v1h-3.56v2.15c.17-.06.35-.11.52-.13.17-.02.35-.05.52-.05.97,0,1.74.28,2.32.8.58.54.86,1.26.86,2.17s-.3,1.68-.89,2.2-1.42.77-2.47.77c-.37,0-.74-.04-1.13-.08-.38-.06-.77-.14-1.18-.28v-1.19c.35.19.71.34,1.09.43.37.1.77.13,1.19.13.67,0,1.21-.17,1.61-.53.38-.36.59-.84.59-1.45s-.2-1.08-.59-1.44c-.4-.36-.94-.54-1.61-.54-.31,0-.64.04-.95.11-.31.07-.64.18-.96.32v-4.39Z"/>
    <line class="cls-7" x1="316.55" y1="272.96" x2="316.55" y2="277.16"/>
    <line class="cls-5" x1="316.55" y1="273.31" x2="316.55" y2="276.81"/>
    <path class="cls-7" d="M308.59,279.73c.97,0,1.72.4,2.24,1.16.52.78.78,1.91.78,3.37s-.26,2.6-.78,3.37c-.53.77-1.27,1.15-2.26,1.15s-1.73-.38-2.24-1.15c-.52-.77-.77-1.9-.77-3.37s.25-2.59.77-3.37c.52-.77,1.27-1.16,2.26-1.16ZM308.59,280.67c-.61,0-1.07.3-1.38.9s-.46,1.5-.46,2.7.14,2.1.46,2.7.77.9,1.38.9,1.07-.3,1.38-.9c.3-.6.46-1.5.46-2.7s-.16-2.1-.46-2.7c-.31-.6-.77-.9-1.38-.9Z"/>
    <rect class="cls-7" x="312.74" y="286.54" width="1.24" height="1.49"/>
    <path class="cls-7" d="M316.65,287.65h4.13v1h-5.56v-1c.44-.46,1.06-1.08,1.84-1.87.77-.78,1.26-1.28,1.46-1.51.38-.42.65-.78.79-1.08.14-.29.23-.59.23-.88,0-.46-.17-.84-.49-1.13-.32-.29-.74-.44-1.27-.44-.37,0-.77.07-1.18.19-.41.13-.85.32-1.32.59v-1.2c.48-.19.92-.34,1.33-.43.41-.1.79-.14,1.14-.14.9,0,1.62.23,2.16.68.54.46.82,1.06.82,1.81,0,.36-.07.71-.2,1.02-.13.32-.37.71-.73,1.14-.1.12-.41.44-.94.98-.53.54-1.26,1.3-2.21,2.27Z"/>
    <path class="cls-7" d="M324.49,279.73c.97,0,1.72.4,2.24,1.16.52.78.78,1.91.78,3.37s-.26,2.6-.78,3.37c-.53.77-1.27,1.15-2.26,1.15s-1.73-.38-2.24-1.15c-.52-.77-.77-1.9-.77-3.37s.25-2.59.77-3.37c.52-.77,1.27-1.16,2.26-1.16ZM324.49,280.67c-.61,0-1.07.3-1.38.9s-.46,1.5-.46,2.7.14,2.1.46,2.7.77.9,1.38.9,1.07-.3,1.38-.9c.3-.6.46-1.5.46-2.7s-.16-2.1-.46-2.7c-.31-.6-.77-.9-1.38-.9Z"/>
    <line class="cls-7" x1="381.48" y1="272.96" x2="381.48" y2="277.16"/>
    <line class="cls-5" x1="381.48" y1="273.31" x2="381.48" y2="276.81"/>
    <path class="cls-7" d="M373.53,279.73c.97,0,1.72.4,2.24,1.16.52.78.78,1.91.78,3.37s-.26,2.6-.78,3.37c-.53.77-1.27,1.15-2.26,1.15s-1.73-.38-2.24-1.15c-.52-.77-.77-1.9-.77-3.37s.25-2.59.77-3.37c.52-.77,1.27-1.16,2.26-1.16ZM373.53,280.67c-.61,0-1.07.3-1.38.9s-.46,1.5-.46,2.7.14,2.1.46,2.7.77.9,1.38.9,1.07-.3,1.38-.9c.3-.6.46-1.5.46-2.7s-.16-2.1-.46-2.7c-.31-.6-.77-.9-1.38-.9Z"/>
    <rect class="cls-7" x="377.67" y="286.54" width="1.24" height="1.49"/>
    <path class="cls-7" d="M381.58,287.65h4.13v1h-5.56v-1c.44-.46,1.06-1.08,1.84-1.87.77-.78,1.26-1.28,1.46-1.51.38-.42.65-.78.79-1.08.14-.29.23-.59.23-.88,0-.46-.17-.84-.49-1.13-.32-.29-.74-.44-1.27-.44-.37,0-.77.07-1.18.19-.41.13-.85.32-1.32.59v-1.2c.48-.19.92-.34,1.33-.43.41-.1.79-.14,1.14-.14.9,0,1.62.23,2.16.68.54.46.82,1.06.82,1.81,0,.36-.07.71-.2,1.02-.13.32-.37.71-.73,1.14-.1.12-.41.44-.94.98-.53.54-1.26,1.3-2.21,2.27Z"/>
    <path class="cls-7" d="M386.92,279.87h4.64v1h-3.56v2.15c.17-.06.35-.11.52-.13.17-.02.35-.05.52-.05.97,0,1.74.28,2.32.8.58.54.86,1.26.86,2.17s-.3,1.68-.89,2.2-1.42.77-2.47.77c-.37,0-.74-.04-1.13-.08-.38-.06-.77-.14-1.18-.28v-1.19c.35.19.71.34,1.09.43.37.1.77.13,1.19.13.67,0,1.21-.17,1.61-.53.38-.36.59-.84.59-1.45s-.2-1.08-.59-1.44c-.4-.36-.94-.54-1.61-.54-.31,0-.64.04-.95.11-.31.07-.64.18-.96.32v-4.39Z"/>
    <polygon class="cls-7" points="192.56 293.56 197.58 293.56 197.58 294.55 193.74 294.55 193.74 297.13 197.21 297.13 197.21 298.13 193.74 298.13 193.74 302.31 192.56 302.31 192.56 293.56"/>
    <path class="cls-7" d="M202.46,296.58c-.12-.07-.25-.12-.4-.16-.14-.02-.3-.05-.47-.05-.61,0-1.08.2-1.4.6-.34.4-.49.96-.49,1.7v3.46h-1.08v-6.56h1.08v1.02c.22-.4.52-.7.88-.89.36-.19.8-.29,1.33-.29.07,0,.16.01.25.01.08.01.18.02.3.05v1.1Z"/>
    <path class="cls-7" d="M207.96,298.26c-.01-.59-.18-1.06-.49-1.42-.32-.35-.76-.53-1.28-.53-.6,0-1.08.18-1.44.52-.36.34-.58.82-.62,1.43h3.84ZM209.04,298.57v.53h-4.96c.05.74.26,1.32.67,1.7.4.38.95.58,1.67.58.41,0,.82-.05,1.2-.14.38-.1.78-.25,1.16-.47v1.02c-.38.17-.78.3-1.19.37-.41.07-.83.12-1.24.12-1.06,0-1.88-.3-2.5-.9-.61-.6-.91-1.43-.91-2.47s.29-1.92.86-2.56c.58-.62,1.37-.95,2.35-.95.89,0,1.58.29,2.1.85.5.58.77,1.34.77,2.32Z"/>
    <path class="cls-7" d="M214.92,300.95c-.23.4-.52.68-.86.86-.35.18-.76.28-1.24.28-.79,0-1.44-.31-1.94-.94-.5-.62-.74-1.46-.74-2.5s.24-1.86.74-2.5c.5-.62,1.15-.95,1.94-.95.48,0,.89.1,1.24.29.35.19.64.48.86.86v-1h1.08v9.05h-1.08v-3.47ZM211.24,298.65c0,.79.16,1.42.48,1.87.32.46.77.67,1.34.67s1.02-.22,1.36-.67c.32-.46.49-1.08.49-1.87s-.17-1.4-.49-1.86c-.34-.46-.78-.68-1.36-.68s-1.02.23-1.34.68c-.32.46-.48,1.07-.48,1.86Z"/>
    <rect class="cls-7" x="217.38" y="300.21" width="1.24" height="1.49"/>
    <path class="cls-7" d="M226.1,293.1c-.53.91-.91,1.8-1.16,2.68-.26.88-.38,1.76-.38,2.66s.12,1.8.38,2.68c.25.89.64,1.76,1.16,2.66h-.94c-.59-.92-1.03-1.81-1.32-2.7-.29-.89-.43-1.76-.43-2.64s.14-1.74.43-2.63c.29-.89.72-1.79,1.32-2.71h.94Z"/>
    <polygon class="cls-7" points="227.1 293.56 228.29 293.56 228.29 297.15 232.58 297.15 232.58 293.56 233.77 293.56 233.77 302.31 232.58 302.31 232.58 298.14 228.29 298.14 228.29 302.31 227.1 302.31 227.1 293.56"/>
    <polygon class="cls-7" points="234.33 295.56 239.46 295.56 239.46 296.54 235.4 301.26 239.46 301.26 239.46 302.12 234.19 302.12 234.19 301.14 238.24 296.42 234.33 296.42 234.33 295.56"/>
    <path class="cls-7" d="M240.02,293.1h.94c.58.92,1.02,1.82,1.31,2.71.29.89.44,1.76.44,2.63s-.16,1.75-.44,2.64c-.29.89-.73,1.78-1.31,2.7h-.94c.52-.9.9-1.78,1.16-2.66.25-.88.38-1.76.38-2.68s-.13-1.79-.38-2.66c-.26-.88-.65-1.76-1.16-2.68Z"/>
    <line class="cls-7" x1="40.94" y1="248.32" x2="36.74" y2="248.32"/>
    <line class="cls-5" x1="40.59" y1="248.32" x2="37.09" y2="248.32"/>
    <path class="cls-7" d="M28.93,251.86h4.13v1h-5.56v-1c.44-.46,1.06-1.08,1.84-1.87.77-.78,1.26-1.28,1.46-1.51.38-.42.65-.78.79-1.08.14-.29.23-.59.23-.88,0-.46-.17-.84-.49-1.13-.32-.29-.74-.44-1.27-.44-.37,0-.77.07-1.18.19-.41.13-.85.32-1.32.59v-1.2c.48-.19.92-.34,1.33-.43s.79-.14,1.14-.14c.9,0,1.62.23,2.16.68.54.46.82,1.06.82,1.81,0,.36-.07.71-.2,1.02-.13.32-.37.71-.73,1.14-.1.12-.41.44-.94.98s-1.26,1.3-2.21,2.27Z"/>
    <line class="cls-7" x1="40.94" y1="199.58" x2="36.74" y2="199.58"/>
    <line class="cls-5" x1="40.59" y1="199.58" x2="37.09" y2="199.58"/>
    <path class="cls-7" d="M30.83,195.36h1.49v5.7h1.25v.98h-1.25v2.06h-1.18v-2.06h-3.95v-1.14l3.64-5.54ZM31.14,196.39l-2.99,4.67h2.99v-4.67Z"/>
    <line class="cls-7" x1="40.94" y1="150.84" x2="36.74" y2="150.84"/>
    <line class="cls-5" x1="40.59" y1="150.84" x2="37.09" y2="150.84"/>
    <path class="cls-7" d="M32.9,146.81v1.08c-.3-.14-.6-.25-.9-.32-.31-.07-.61-.11-.9-.11-.79,0-1.39.26-1.8.79-.41.53-.65,1.33-.7,2.39.23-.34.52-.6.86-.78.35-.18.73-.28,1.15-.28.88,0,1.57.28,2.08.8.5.53.77,1.26.77,2.17s-.28,1.62-.8,2.16c-.53.54-1.24.8-2.11.8-1.01,0-1.79-.38-2.32-1.15-.54-.77-.8-1.9-.8-3.37,0-1.38.32-2.48.98-3.3.65-.82,1.54-1.24,2.64-1.24.29,0,.59.04.9.08.3.06.61.14.95.26ZM30.55,150.52c-.53,0-.95.19-1.26.55s-.47.86-.47,1.49.16,1.14.47,1.5.73.54,1.26.54.95-.18,1.26-.54.47-.86.47-1.5-.16-1.13-.47-1.49-.73-.55-1.26-.55Z"/>
    <line class="cls-7" x1="40.94" y1="102.1" x2="36.74" y2="102.1"/>
    <line class="cls-5" x1="40.59" y1="102.1" x2="37.09" y2="102.1"/>
    <path class="cls-7" d="M28.79,100.1c0,.46.13.82.42,1.07.29.25.68.37,1.2.37s.9-.12,1.19-.37c.29-.25.43-.61.43-1.07s-.14-.8-.43-1.06c-.29-.25-.68-.38-1.19-.38s-.91.13-1.2.38c-.29.25-.42.6-.42,1.06ZM29.22,101.97c-.5-.12-.9-.36-1.19-.71-.29-.35-.42-.77-.42-1.27,0-.7.24-1.25.74-1.66.49-.41,1.18-.61,2.05-.61s1.55.2,2.05.61c.49.41.74.96.74,1.66,0,.5-.14.92-.43,1.27-.29.35-.67.59-1.18.71.56.13,1.01.4,1.33.78.31.38.48.86.48,1.42,0,.85-.26,1.5-.78,1.94-.53.46-1.27.67-2.23.67s-1.7-.22-2.22-.67c-.52-.44-.77-1.09-.77-1.94,0-.55.16-1.03.48-1.42.31-.38.76-.65,1.33-.78ZM30.41,102.47c-.56,0-1.01.16-1.33.46s-.48.71-.48,1.24.16.95.48,1.25.77.44,1.33.44,1-.14,1.32-.46c.32-.3.49-.71.49-1.24s-.17-.94-.48-1.24c-.32-.3-.77-.46-1.33-.46Z"/>
    <line class="cls-7" x1="40.94" y1="53.36" x2="36.74" y2="53.36"/>
    <line class="cls-5" x1="40.59" y1="53.36" x2="37.09" y2="53.36"/>
    <polygon class="cls-7" points="21.71 56.89 23.64 56.89 23.64 50.22 21.54 50.64 21.54 49.56 23.63 49.14 24.81 49.14 24.81 56.89 26.75 56.89 26.75 57.89 21.71 57.89 21.71 56.89"/>
    <path class="cls-7" d="M30.41,48.98c.97,0,1.72.4,2.24,1.16.52.78.78,1.91.78,3.37s-.26,2.6-.78,3.37c-.53.77-1.27,1.15-2.26,1.15s-1.73-.38-2.24-1.15c-.52-.77-.77-1.9-.77-3.37s.25-2.59.77-3.37c.52-.77,1.27-1.16,2.26-1.16ZM30.41,49.92c-.61,0-1.07.3-1.38.9s-.46,1.5-.46,2.7.14,2.1.46,2.7.77.9,1.38.9,1.07-.3,1.38-.9c.3-.6.46-1.5.46-2.7s-.16-2.1-.46-2.7c-.31-.6-.77-.9-1.38-.9Z"/>
    <path class="cls-7" d="M6.77,168.3v-2.68c0-.97.23-1.72.67-2.22s1.09-.76,1.94-.76,1.52.25,1.96.76c.44.5.66,1.25.66,2.22v1.49h3.52v1.19H6.77ZM7.75,167.11h3.29v-1.49c0-.55-.13-.97-.42-1.27-.29-.3-.7-.46-1.22-.46s-.92.16-1.21.46c-.29.3-.43.72-.43,1.27v1.49Z"/>
    <path class="cls-7" d="M7.06,157.01h1.15c-.22.46-.37.88-.48,1.27-.1.41-.16.79-.16,1.15,0,.65.13,1.15.37,1.5.25.35.61.52,1.07.52.38,0,.68-.11.88-.35.2-.23.36-.67.48-1.32l.14-.72c.17-.88.47-1.52.89-1.94.43-.42,1-.64,1.7-.64.85,0,1.49.29,1.92.85.43.58.65,1.4.65,2.5,0,.42-.05.86-.13,1.33-.08.47-.22.95-.41,1.44h-1.22c.28-.48.48-.95.61-1.4.14-.46.2-.91.2-1.37,0-.67-.13-1.19-.4-1.56-.26-.36-.64-.55-1.14-.55-.43,0-.77.13-1.01.4-.24.26-.42.7-.54,1.3l-.14.72c-.17.89-.44,1.52-.83,1.92-.37.4-.89.59-1.56.59-.77,0-1.38-.26-1.82-.82-.44-.54-.67-1.3-.67-2.26,0-.41.04-.82.11-1.25.07-.42.19-.85.34-1.31Z"/>
    <path class="cls-7" d="M6.77,156.06v-2.44c0-1.69.36-2.94,1.06-3.73.71-.79,1.81-1.19,3.31-1.19s2.62.41,3.32,1.2,1.06,2.04,1.06,3.72v2.44H6.77ZM7.75,154.88h6.8v-1.43c0-1.2-.26-2.09-.82-2.65-.55-.55-1.42-.84-2.59-.84s-2.03.29-2.58.84c-.54.56-.82,1.45-.82,2.65v1.43Z"/>
    <path class="cls-7" d="M6.31,142.23c.91.53,1.8.91,2.68,1.16.88.26,1.76.38,2.66.38s1.8-.12,2.68-.38c.89-.25,1.76-.64,2.66-1.16v.94c-.92.59-1.81,1.03-2.7,1.32-.89.29-1.76.43-2.64.43s-1.74-.14-2.63-.43c-.89-.29-1.79-.72-2.71-1.32v-.94Z"/>
    <polygon class="cls-7" points="6.77 142.24 6.77 141.04 14.17 139.21 6.77 137.37 6.77 136.04 14.17 134.2 6.77 132.37 6.77 131.17 15.52 133.36 15.52 134.85 7.93 136.7 15.52 138.56 15.52 140.05 6.77 142.24"/>
    <polygon class="cls-7" points="6.68 129.05 6.68 128.05 16.53 131.1 16.53 132.1 6.68 129.05"/>
    <polygon class="cls-7" points="6.77 127.97 6.77 126.78 10.36 126.78 10.36 122.48 6.77 122.48 6.77 121.29 15.52 121.29 15.52 122.48 11.36 122.48 11.36 126.78 15.52 126.78 15.52 127.97 6.77 127.97"/>
    <polygon class="cls-7" points="8.78 120.74 8.78 115.61 9.76 115.61 14.48 119.67 14.48 115.61 15.34 115.61 15.34 120.88 14.36 120.88 9.64 116.82 9.64 120.74 8.78 120.74"/>
    <path class="cls-7" d="M6.31,115.04v-.94c.92-.58,1.82-1.02,2.71-1.31.89-.29,1.76-.44,2.63-.44s1.75.16,2.64.44c.89.29,1.78.73,2.7,1.31v.94c-.9-.52-1.78-.9-2.66-1.16-.88-.25-1.76-.38-2.68-.38s-1.79.13-2.66.38c-.88.26-1.76.65-2.68,1.16Z"/>
    <g class="cls-1">
      <polyline class="cls-4" points="56.82 239.85 66.97 19.3 77.11 32.84 87.26 103.2 97.41 155.1 107.55 171.38 117.7 170.7 127.84 189.69 137.99 201.22 148.13 201.05 158.28 196.01 168.42 201.98 178.57 200.19 188.71 215.1 198.86 217.95 209.01 226.11 219.15 232.06 229.3 234.1 239.44 237.35 249.59 238.33 259.73 240.3 269.88 241.65 280.02 241.54 290.17 242.07 300.31 242.75 310.46 239.98 320.61 238.39 330.75 236.7 340.9 230.83 351.04 230.3 361.19 228.21 371.33 224.84 381.48 261.22"/>
    </g>
    <line class="cls-2" x1="40.59" y1="273.31" x2="40.59" y2="7.2"/>
    <line class="cls-2" x1="40.59" y1="273.31" x2="397.71" y2="273.31"/>
  </g>
</svg>